<svg width="35" height="35" viewBox="0 0 35 35" fill="none" xmlns="http://www.w3.org/2000/svg">
<path d="M26.2014 0.013855H8.77082C3.94132 0.013855 0 3.95517 0 8.78467V26.243C0 31.0448 3.94132 34.9861 8.77082 34.9861H26.2292C31.0587 34.9861 35 31.0448 35 26.2153V8.78467C34.9722 3.95517 31.0309 0.013855 26.2014 0.013855ZM23.6479 25.8545C22.0658 27.4365 19.8731 28.408 17.4861 28.408C15.0991 28.408 12.9064 27.4365 11.3243 25.8545C9.74227 24.2724 8.77082 22.0797 8.77082 19.6927C8.77082 19.5539 8.82633 19.3874 8.85408 19.2486C8.85408 19.1931 8.9096 19.1376 8.9096 19.1098V7.67444C8.9096 7.06382 9.27042 6.59197 9.88105 6.59197C10.4917 6.59197 10.8525 7.09157 10.8525 7.67444V13.9195C11.1301 13.7807 11.1578 13.6419 11.2966 13.5031C12.8787 11.9211 15.0991 10.9496 17.4861 10.9496C19.8731 10.9496 22.0936 11.9211 23.6757 13.5031C25.2577 15.0852 26.2292 17.2502 26.2292 19.6649C26.2014 22.0797 25.23 24.2724 23.6479 25.8545Z" fill="black"/>
<path d="M22.1214 15.0575C20.9279 13.864 19.2903 13.1423 17.4861 13.1423C15.682 13.1423 14.0444 13.864 12.8509 15.0575C11.6574 16.251 10.9358 17.8886 10.9358 19.6927C10.9358 21.4968 11.6574 23.1344 12.8509 24.3279C14.0444 25.5214 15.682 26.243 17.4861 26.243C19.2903 26.243 20.9279 25.5214 22.1214 24.3279C23.3149 23.1344 24.0365 21.4968 24.0365 19.6927C24.0365 17.8886 23.3149 16.251 22.1214 15.0575ZM14.2665 21.9409C13.2118 21.9409 12.3236 21.0805 12.3236 19.998C12.3236 18.9433 13.184 18.0551 14.2665 18.0551C15.3212 18.0551 16.2094 18.9155 16.2094 19.998C16.1816 21.0805 15.3212 21.9409 14.2665 21.9409Z" fill="black"/>
</svg>
