<svg width="35" height="35" viewBox="0 0 35 35" fill="none" xmlns="http://www.w3.org/2000/svg">
<path d="M13.5446 12.7815H13.045H9.71436V15.8347H13.2948C13.9332 15.8347 14.4883 15.6681 14.4883 14.1971C14.4883 12.726 13.5446 12.7815 13.5446 12.7815Z" fill="#4176FA"/>
<path d="M13.5447 18.0551H9.71436V21.9409H13.0728C13.1283 21.9409 13.2116 21.9409 13.3226 21.9409C13.8777 21.9409 14.9324 21.7189 14.9324 20.0535C14.9602 18.0829 13.5447 18.0551 13.5447 18.0551Z" fill="#4176FA"/>
<path d="M26.2014 0.013855H8.77082C3.94132 0.013855 0 3.95517 0 8.78467V26.243C0 31.0448 3.94132 34.9861 8.77082 34.9861H26.2292C31.0587 34.9861 35 31.0448 35 26.2153V8.78467C34.9722 3.95517 31.0309 0.013855 26.2014 0.013855ZM20.5393 11.1162H26.368V12.5039H20.5393V11.1162ZM17.8192 20.2478C17.8192 24.5777 13.5448 24.7165 13.5448 24.7165H9.60349H9.49247H6.66138V10.2835H9.46471H9.57573H13.517C15.6542 10.2835 17.3473 11.5047 17.3473 14.0583C17.3473 16.6118 15.2934 16.7506 15.2934 16.7506C18.0135 16.7228 17.8192 20.2478 17.8192 20.2478ZM28.2831 19.998H21.2609C21.2609 22.7736 23.6479 22.5515 23.6479 22.5515C25.8961 22.5515 25.8128 21.1082 25.8128 21.1082H28.1998C28.1998 24.994 23.5646 24.8275 23.5646 24.8275C18.0135 24.8275 18.3743 19.3596 18.3743 19.3596C18.3743 19.3596 18.3743 13.864 23.5646 13.864C29.0325 13.8362 28.2831 19.998 28.2831 19.998Z" fill="#4176FA"/>
<path d="M23.6199 15.8624C21.5382 15.8624 21.2329 18.0551 21.2329 18.0551H25.6738C25.6738 18.0551 25.7016 15.8624 23.6199 15.8624Z" fill="#4176FA"/>
</svg>
