<svg width="36" height="36" viewBox="0 0 36 36" fill="none" xmlns="http://www.w3.org/2000/svg">
<g clip-path="url(#clip0)">
<path d="M5.25661 31.8153H26.1938L25.1939 28.5776C25.3422 28.7068 33.772 35.9326 33.772 35.9326V4.32631C33.6721 2.36165 31.9806 0.692139 29.8838 0.692139L5.26395 0.696544C3.16861 0.696544 1.46826 2.369 1.46826 4.33365V28.1797C1.46826 30.2515 3.16567 31.8153 5.25661 31.8153ZM20.7448 9.03678L20.6963 9.0544L20.7139 9.03678H20.7448ZM9.53978 10.9001C12.2313 8.94133 14.726 9.03531 14.726 9.03531L14.9272 9.23354C11.6337 10.0191 10.1403 11.4904 10.1403 11.4904C10.293 11.4581 16.9432 7.62129 25.0015 11.5873C25.0015 11.5873 23.5053 10.2115 20.4144 9.33045L20.6875 9.06174C21.1148 9.06321 23.3761 9.1425 25.7959 10.9119C25.7959 10.9119 28.5035 15.5372 28.5035 21.2197C28.414 21.111 26.8237 23.666 22.7314 23.7541C22.7314 23.7541 22.0384 22.97 21.545 22.2857C23.9384 21.5985 24.8341 20.2241 24.8341 20.2241C20.175 23.1579 16.0916 22.6998 11.2064 20.7175C11.1608 20.7175 11.1403 20.697 11.1168 20.6735V20.6646C11.0933 20.6426 11.0727 20.6206 11.0272 20.6206H10.9391C10.6396 20.4238 10.4399 20.3269 10.4399 20.3269C10.4399 20.3269 11.3341 21.7013 13.6321 22.3885C13.0286 23.0771 12.431 23.8598 12.431 23.8598C8.34014 23.7629 6.8483 21.2079 6.8483 21.2079C6.8483 15.5166 9.53978 10.9001 9.53978 10.9001Z" fill="#5C6BC0"/>
<path d="M21.0089 19.4444C22.0529 19.4444 22.9031 18.5634 22.9031 17.4768C22.9031 16.3976 22.0573 15.5166 21.0089 15.5166V15.521C19.9693 15.521 19.1177 16.399 19.1147 17.4856C19.1147 18.5634 19.9649 19.4444 21.0089 19.4444Z" fill="#5C6BC0"/>
<path d="M14.2282 19.4444C15.2722 19.4444 16.1223 18.5634 16.1223 17.4768C16.1223 16.3976 15.278 15.5166 14.234 15.5166L14.2282 15.521C13.1842 15.521 12.334 16.399 12.334 17.4856C12.334 18.5634 13.1842 19.4444 14.2282 19.4444Z" fill="#5C6BC0"/>
</g>
<defs>
<clipPath id="clip0">
<rect width="35.2404" height="35.2404" fill="white" transform="translate(0 0.692139)"/>
</clipPath>
</defs>
</svg>
