<svg width="16" height="16" viewBox="0 0 16 16" fill="none" xmlns="http://www.w3.org/2000/svg">
<path d="M10.5678 8.35531L8.83802 10.1053L8.83802 0.847825C8.83802 0.622967 8.74973 0.407321 8.59257 0.248322C8.43541 0.0893246 8.22226 6.23414e-07 8 6.03983e-07C7.77774 5.84553e-07 7.56459 0.0893246 7.40743 0.248322C7.25027 0.407321 7.16198 0.622967 7.16198 0.847825L7.16198 10.1053L5.4322 8.35531C5.35446 8.27623 5.26206 8.21344 5.1603 8.17055C5.05853 8.12766 4.9494 8.1055 4.83916 8.10535C4.72892 8.1052 4.61973 8.12706 4.51785 8.16967C4.41597 8.21228 4.3234 8.27481 4.24545 8.35367C4.1675 8.43254 4.10569 8.52619 4.06357 8.62926C4.02146 8.73233 3.99985 8.8428 4 8.95433C4.00015 9.06586 4.02205 9.17627 4.06445 9.27922C4.10684 9.38218 4.1689 9.47566 4.24706 9.55431L7.40741 12.7517C7.48523 12.8304 7.57762 12.8928 7.67929 12.9355C7.78097 12.9781 7.88995 13 8 13C8.11005 13 8.21903 12.9781 8.32071 12.9355C8.42238 12.8928 8.51477 12.8304 8.59259 12.7517L11.7529 9.55431C11.8311 9.47566 11.8932 9.38218 11.9356 9.27922C11.9779 9.17627 11.9998 9.06586 12 8.95433C12.0001 8.8428 11.9785 8.73233 11.9364 8.62926C11.8943 8.52619 11.8325 8.43254 11.7545 8.35367C11.6766 8.27481 11.584 8.21228 11.4821 8.16967C11.3803 8.12706 11.2711 8.1052 11.1608 8.10535C11.0506 8.1055 10.9415 8.12766 10.8397 8.17055C10.7379 8.21344 10.6455 8.27623 10.5678 8.35531Z" fill="white"/>
<path d="M15.1724 7C14.9529 7 14.7424 7.08889 14.5872 7.24713C14.432 7.40536 14.3448 7.61997 14.3448 7.84375V14.3125H1.65517V7.84375C1.65517 7.61997 1.56798 7.40536 1.41278 7.24713C1.25758 7.08889 1.04708 7 0.827586 7C0.608097 7 0.397597 7.08889 0.242394 7.24713C0.0871919 7.40536 0 7.61997 0 7.84375V14.5938C0 14.9667 0.14532 15.3244 0.403991 15.5881C0.662661 15.8518 1.01349 16 1.37931 16H14.6207C14.9865 16 15.3373 15.8518 15.596 15.5881C15.8547 15.3244 16 14.9667 16 14.5938V7.84375C16 7.61997 15.9128 7.40536 15.7576 7.24713C15.6024 7.08889 15.3919 7 15.1724 7Z" fill="white"/>
</svg>
