<svg width="87" height="86" viewBox="0 0 87 86" fill="none" xmlns="http://www.w3.org/2000/svg">
<path d="M57.8886 44.2114L57.8906 44.2094C58.2049 43.8894 58.5793 43.6345 58.9923 43.4593L58.6019 42.5387L58.9923 43.4593C59.4053 43.2842 59.8488 43.1923 60.2974 43.1888C60.746 43.1854 61.1909 43.2705 61.6065 43.4393C62.0222 43.608 62.4004 43.8572 62.7196 44.1724C63.0388 44.4876 63.2927 44.8626 63.4667 45.2761L64.3831 44.8905L63.4667 45.2761C63.6407 45.6896 63.7315 46.1334 63.7337 46.582C63.7359 47.0306 63.6496 47.4752 63.4797 47.8904C63.3098 48.3056 63.0597 48.6832 62.7436 49.0015L62.7417 49.0035L46.2156 65.74L46.2156 65.74C45.9009 66.0587 45.5266 66.3123 45.1139 66.4863C44.7012 66.6603 44.2584 66.7513 43.8105 66.7541C43.3627 66.7569 42.9187 66.6715 42.5039 66.5028C42.089 66.334 41.7115 66.0852 41.3929 65.7705L41.3928 65.7705L24.6565 49.2442L24.6545 49.2423C24.3345 48.9279 24.0796 48.5536 23.9044 48.1406L22.9838 48.5309L23.9044 48.1405C23.7293 47.7275 23.6374 47.284 23.6339 46.8354C23.6305 46.3869 23.7156 45.942 23.8844 45.5263L22.9578 45.1501L23.8844 45.5263C24.0531 45.1107 24.3023 44.7324 24.6175 44.4132C24.9327 44.094 25.3077 43.8401 25.7212 43.6661C26.1347 43.4921 26.5785 43.4014 27.0271 43.3991C27.4757 43.3969 27.9203 43.4832 28.3355 43.6531C28.7507 43.823 29.1283 44.0732 29.4466 44.3892L29.4485 44.3912L38.609 53.4365L40.3269 55.1328L40.3116 52.7186L40.0072 4.56469C40.0015 3.66029 40.3553 2.79065 40.9908 2.14709C41.6262 1.50354 42.4913 1.13878 43.3957 1.13306C44.3001 1.12734 45.1698 1.48114 45.8133 2.11661C46.4569 2.75208 46.8216 3.61717 46.8274 4.52158L47.1317 52.6755L47.147 55.0897L48.8433 53.3718L57.8886 44.2114Z" fill="white" stroke="#616161" stroke-width="2"/>
<path d="M77.5462 77.473L78.5462 77.47L78.5432 76.47L78.4413 42.659C78.4385 41.7546 78.7952 40.8862 79.4328 40.2447C80.0704 39.6033 80.9367 39.2414 81.8411 39.2386C82.7455 39.2359 83.614 39.5926 84.2554 40.2302C84.8969 40.8678 85.2588 41.7341 85.2615 42.6385L85.3679 77.9195C85.373 79.6036 84.7088 81.2209 83.5215 82.4153C82.3342 83.6098 80.721 84.2837 79.0368 84.2888L8.47487 84.5016C6.79069 84.5066 5.17347 83.8425 3.97898 82.6552C2.78449 81.4679 2.11059 79.8547 2.10551 78.1705L1.99913 42.8895C1.99641 41.9851 2.35307 41.1166 2.99067 40.4752C3.62826 39.8337 4.49456 39.4718 5.39898 39.4691C6.3034 39.4664 7.17186 39.8231 7.81331 40.4607C8.45477 41.0982 8.81666 41.9645 8.81939 42.869L8.92133 76.6799L8.92435 77.6799L9.92434 77.6769L77.5462 77.473Z" fill="white" stroke="#616161" stroke-width="2"/>
</svg>
