<svg width="35" height="35" viewBox="0 0 35 35" fill="none" xmlns="http://www.w3.org/2000/svg">
<path d="M30 0H5C2.23858 0 0 2.23858 0 5V30C0 32.7614 2.23858 35 5 35H30C32.7614 35 35 32.7614 35 30V5C35 2.23858 32.7614 0 30 0Z" fill="#FF7CB9"/>
<path d="M17.5 5C10.617 5 5 10.618 5 17.5C5 24.383 10.618 30 17.5 30C24.383 30 30 24.382 30 17.5C30 10.617 24.382 5 17.5 5ZM25.979 10.445C27.539 12.317 28.492 14.712 28.533 17.324C26.577 16.867 24.404 16.836 22.192 17.239C21.616 17.344 21.041 17.478 20.468 17.638C20.278 17.12 20.076 16.606 19.861 16.097C19.642 15.578 19.41 15.068 19.168 14.565C21.804 13.558 24.661 12.059 25.979 10.445ZM17.5 6.465C20.372 6.465 22.991 7.56799 24.956 9.37199C24.189 10.417 22.005 11.939 18.5 13.252C17.276 10.974 15.809 8.87999 14.114 6.99699C15.181 6.65199 16.319 6.465 17.5 6.465ZM12.664 7.58299C14.393 9.43499 15.88 11.503 17.105 13.738C13.458 14.918 9.767 15.399 6.731 15.088C7.47 11.785 9.694 9.03699 12.664 7.58299ZM6.465 17.5C6.465 17.176 6.48 16.855 6.507 16.538C7.177 16.609 7.87601 16.645 8.59801 16.645C11.446 16.645 14.646 16.097 17.788 15.056C18.268 16.038 18.699 17.047 19.079 18.082C17.854 18.522 16.662 19.083 15.542 19.749C12.797 21.383 10.789 23.486 9.95599 25.545C7.80899 23.531 6.465 20.669 6.465 17.5ZM17.5 28.535C15.142 28.535 12.955 27.792 11.159 26.526C11.716 24.646 13.599 22.611 16.292 21.008C17.24 20.442 18.35 19.91 19.557 19.477C20.413 22.167 20.938 25.007 21.104 27.93C19.974 28.322 18.762 28.535 17.5 28.535ZM22.533 27.319C22.33 24.472 21.799 21.699 20.948 19.036C23.321 18.384 25.957 18.165 28.457 18.813C28.014 22.525 25.723 25.677 22.533 27.319Z" fill="white"/>
</svg>
