<svg width="36" height="36" viewBox="0 0 36 36" fill="none" xmlns="http://www.w3.org/2000/svg">
<path d="M30.4938 0H4.75116C2.12857 0 0.00244141 2.12604 0.00244141 4.74872V30.4915C0.00244141 33.1142 2.12848 35.2403 4.75116 35.2403H17.4473L17.469 22.6473H14.1973C13.7721 22.6473 13.427 22.3035 13.4254 21.8783L13.4097 17.8191C13.4081 17.3916 13.7542 17.0442 14.1817 17.0442H17.4474V13.1219C17.4474 8.57019 20.2273 6.09174 24.2878 6.09174H27.6197C28.046 6.09174 28.3917 6.43734 28.3917 6.86372V10.2865C28.3917 10.7127 28.0462 11.0582 27.6201 11.0585L25.5754 11.0594C23.3672 11.0594 22.9396 12.1087 22.9396 13.6487V17.0443H27.7917C28.2541 17.0443 28.6128 17.448 28.5583 17.9071L28.0772 21.9663C28.0311 22.3548 27.7017 22.6475 27.3106 22.6475H22.9612L22.9396 35.2404H30.494C33.1166 35.2404 35.2426 33.1144 35.2426 30.4918V4.74872C35.2425 2.12604 33.1165 0 30.4938 0Z" fill="#475993"/>
</svg>
