<svg width="35" height="35" viewBox="0 0 35 35" fill="none" xmlns="http://www.w3.org/2000/svg">
<g clip-path="url(#clip0)">
<path d="M12.6241 28.1413C12.3807 28.1866 12.2744 28.3008 12.3049 28.483C12.3352 28.6652 12.4719 28.7261 12.715 28.6652C12.9583 28.6045 13.0645 28.498 13.034 28.3462C13.0038 28.1792 12.8671 28.1107 12.6241 28.1413Z" fill="black"/>
<path d="M11.325 28.3237C11.0819 28.3237 10.9604 28.4068 10.9604 28.5742C10.9604 28.7717 11.0897 28.855 11.3478 28.8247C11.5909 28.8247 11.7125 28.7411 11.7125 28.5742C11.7125 28.377 11.5833 28.2932 11.325 28.3237Z" fill="black"/>
<path d="M9.54758 28.2549C9.48692 28.4221 9.58573 28.5357 9.84376 28.5968C10.0716 28.6875 10.216 28.6421 10.2767 28.46C10.3223 28.2931 10.2235 28.1718 9.98047 28.0954C9.75253 28.0348 9.60832 28.0872 9.54758 28.2549Z" fill="black"/>
<path d="M33.0745 1.92528C31.7908 0.64184 30.2455 0 28.4374 0H6.56246C4.7549 0 3.20904 0.64184 1.92528 1.92528C0.64184 3.20896 0 4.75482 0 6.56245V28.4377C0 30.2454 0.64184 31.7911 1.92528 33.0745C3.20896 34.3582 4.7549 35 6.56246 35H11.6666C12.0005 35 12.2514 34.9886 12.4184 34.9662C12.5854 34.9432 12.7524 34.8444 12.9196 34.6696C13.0869 34.495 13.1702 34.2405 13.1702 33.9064C13.1702 33.8611 13.1662 33.3441 13.1587 32.3567C13.1509 31.3691 13.1472 30.5868 13.1472 30.0095L12.6231 30.1007C12.2889 30.1614 11.8673 30.1881 11.3584 30.1804C10.8497 30.1728 10.3216 30.1198 9.77485 30.021C9.22775 29.9221 8.71903 29.6943 8.24807 29.3376C7.77734 28.9803 7.44317 28.5133 7.24564 27.9362L7.0177 27.4118C6.86582 27.0628 6.62671 26.6752 6.30004 26.2502C5.97337 25.8247 5.64304 25.536 5.30887 25.3841L5.14933 25.2701C5.0431 25.1942 4.94437 25.1027 4.85315 24.9965C4.76208 24.8899 4.69377 24.7835 4.64819 24.6775C4.60262 24.5709 4.64045 24.4835 4.76208 24.415C4.88372 24.3467 5.10375 24.3129 5.42292 24.3129L5.87848 24.3811C6.1824 24.4418 6.55815 24.6239 7.00653 24.9279C7.45459 25.2317 7.82292 25.6266 8.11159 26.1125C8.46116 26.7355 8.88233 27.2099 9.37628 27.5366C9.86983 27.8636 10.3674 28.0269 10.8687 28.0269C11.3699 28.0269 11.8028 27.9889 12.1675 27.9132C12.5318 27.8371 12.8737 27.7229 13.1928 27.571C13.3296 26.5533 13.7018 25.7706 14.3092 25.2238C13.4434 25.1325 12.665 24.996 11.9736 24.8135C11.2826 24.6311 10.5685 24.3351 9.83184 23.9248C9.09486 23.5145 8.48351 23.006 7.99738 22.398C7.51133 21.79 7.11244 20.9925 6.80125 20.0054C6.48991 19.0177 6.3342 17.8783 6.3342 16.5872C6.3342 14.7492 6.93446 13.1843 8.1345 11.8932C7.57231 10.5109 7.62538 8.96157 8.29388 7.24484C8.73444 7.10804 9.38777 7.21068 10.2536 7.55251C11.1195 7.89458 11.7535 8.18709 12.1563 8.42979C12.559 8.67258 12.8817 8.87785 13.1248 9.04513C14.5378 8.65015 15.996 8.4527 17.4998 8.4527C19.0036 8.4527 20.462 8.65015 21.8752 9.04513L22.741 8.49827C23.3337 8.13353 24.0324 7.79936 24.8376 7.49568C25.6427 7.19192 26.2578 7.10828 26.6834 7.24508C27.3667 8.96181 27.4279 10.5111 26.8653 11.8933C28.0653 13.1846 28.6657 14.7495 28.6657 16.5874C28.6657 17.8788 28.51 19.0221 28.1987 20.0168C27.8876 21.0118 27.4852 21.8096 26.9911 22.4096C26.4976 23.0097 25.8822 23.5145 25.1456 23.9249C24.4088 24.3349 23.6948 24.6315 23.0034 24.8134C22.3122 24.9958 21.5338 25.1329 20.6679 25.2242C21.4573 25.9075 21.8523 26.9858 21.8523 28.4595V33.9057C21.8523 34.164 21.8899 34.3727 21.9659 34.5323C22.0424 34.6917 22.1637 34.8016 22.3307 34.8628C22.4985 34.9234 22.6459 34.9613 22.7753 34.9764C22.9048 34.9917 23.0905 34.9993 23.3336 34.9993H28.4378C30.2453 34.9993 31.7913 34.3575 33.0744 33.0738C34.3581 31.7901 34.9999 30.2442 34.9999 28.4366V6.56245C34.9998 4.75482 34.3579 3.20872 33.0745 1.92528Z" fill="black"/>
<path d="M6.92713 25.4753C6.8209 25.5509 6.83606 25.6725 6.97278 25.8396C7.1249 25.9914 7.24629 26.0143 7.33751 25.9078C7.44374 25.8322 7.42858 25.7106 7.29162 25.5432C7.13982 25.4067 7.01835 25.3838 6.92713 25.4753Z" fill="black"/>
<path d="M6.1754 24.9056C6.12991 25.0121 6.18306 25.1033 6.33494 25.179C6.45634 25.2552 6.55538 25.2402 6.63112 25.1337C6.67661 25.0271 6.62346 24.9359 6.47158 24.8597C6.3197 24.814 6.22097 24.8294 6.1754 24.9056Z" fill="black"/>
<path d="M7.63342 26.3641C7.49654 26.4397 7.49654 26.5768 7.63342 26.7741C7.77014 26.9718 7.89903 27.0248 8.02074 26.9335C8.15754 26.8271 8.15754 26.6828 8.02074 26.5004C7.89935 26.3034 7.77014 26.2573 7.63342 26.3641Z" fill="black"/>
<path d="M8.43118 27.3891C8.29439 27.5109 8.32456 27.6546 8.52233 27.8223C8.70438 28.0042 8.85634 28.0271 8.97789 27.89C9.09952 27.7688 9.06911 27.6246 8.88675 27.4575C8.7047 27.2755 8.55274 27.2525 8.43118 27.3891Z" fill="black"/>
</g>
<defs>
<clipPath id="clip0">
<rect width="35" height="35" fill="white"/>
</clipPath>
</defs>
</svg>
