<svg width="35" height="35" viewBox="0 0 35 35" fill="none" xmlns="http://www.w3.org/2000/svg">
<g clip-path="url(#clip0)">
<path d="M21.1429 17.5C21.1423 19.5118 19.5108 21.1422 17.499 21.1416C15.4872 21.141 13.8568 19.5095 13.8574 17.4977C13.8578 16.4101 14.3441 15.3795 15.1833 14.6878C16.4299 13.6619 18.2031 13.5789 19.54 14.4838C20.5402 15.1623 21.1403 16.2914 21.1429 17.5Z" fill="#607D8B"/>
<path d="M17.5002 21.8713C15.0909 21.8761 13.1338 19.9269 13.1289 17.5175C13.1289 17.5117 13.1289 17.5058 13.1289 17.5C13.1258 16.193 13.7106 14.9538 14.7215 14.1254C16.2275 12.9227 18.3356 12.8234 19.9481 13.8792C21.9478 15.2317 22.4725 17.9492 21.12 19.949C20.3071 21.1508 18.951 21.8709 17.5002 21.8713ZM17.5002 14.5858C15.8907 14.5858 14.586 15.8906 14.586 17.5C14.586 19.1095 15.8907 20.4142 17.5002 20.4142C19.1096 20.4142 20.4144 19.1095 20.4144 17.5C20.4144 15.8906 19.1096 14.5858 17.5002 14.5858Z" fill="black"/>
<path d="M20.4144 15.3144C20.0121 15.3151 19.6853 14.9895 19.6846 14.5871C19.6842 14.3931 19.7613 14.207 19.8986 14.07L20.0589 13.9097C20.3384 13.6203 20.7997 13.6122 21.0891 13.8918C21.3785 14.1713 21.3866 14.6325 21.107 14.922C21.1011 14.9281 21.0952 14.934 21.0891 14.9399L20.9288 15.1002C20.7925 15.2369 20.6075 15.314 20.4144 15.3144Z" fill="black"/>
<path d="M25.5138 9.48604L20.5743 14.4256L19.5397 14.4838C18.9379 14.0754 18.2272 13.8571 17.4998 13.8573C17.031 11.4567 16.7871 9.01771 16.7712 6.57185C16.7438 3.38042 19.3086 0.77098 22.5 0.743523C22.5332 0.74325 22.5664 0.74325 22.5995 0.743523C24.8229 0.55269 26.78 2.20031 26.9708 4.42365C26.9906 4.65362 26.9906 4.88481 26.9708 5.11478C27.2167 6.72143 26.6745 8.34815 25.5138 9.48604Z" fill="#4CAF50"/>
<path d="M19.5398 15.2124C19.395 15.2125 19.2535 15.1693 19.1333 15.0886C18.6513 14.7616 18.0823 14.5864 17.4999 14.5859C17.1433 14.5856 16.8392 14.3272 16.7815 13.9753C16.3079 11.5356 16.0606 9.0572 16.0428 6.57187C16.008 2.98538 18.8873 0.04974 22.4737 0.0149749C22.5157 0.0145651 22.5577 0.0145651 22.5997 0.0149749C25.2101 -0.191089 27.4934 1.75801 27.6995 4.36848C27.7191 4.61689 27.7191 4.86639 27.6995 5.1148V5.35085C27.9035 7.07688 27.2852 8.79855 26.0297 10.0004L21.0902 14.94C20.9638 15.0666 20.7952 15.1423 20.6166 15.1527L19.5821 15.211L19.5398 15.2124ZM18.1264 13.1739C18.693 13.2562 19.2377 13.4498 19.7292 13.7436L20.2523 13.713L24.9951 8.97019C25.975 8.0404 26.4405 6.69139 26.2424 5.35515V5.11473C26.4416 3.30216 25.1337 1.6712 23.3211 1.47204C23.0813 1.44567 22.8394 1.44567 22.5996 1.47204C19.8105 1.44451 17.5273 3.68321 17.4998 6.47228C17.4994 6.50548 17.4994 6.53867 17.4998 6.57187C17.5059 8.78707 17.7157 10.9971 18.1264 13.1739Z" fill="#455A64"/>
<path d="M18.2284 28.4282C18.2559 31.6196 15.6911 34.229 12.4996 34.2565C12.4664 34.2568 12.4333 34.2568 12.4001 34.2565C10.1768 34.4473 8.2197 32.7997 8.02887 30.5764C8.00913 30.3464 8.00913 30.1152 8.02887 29.8852C7.78305 28.2786 8.32536 26.6518 9.48593 25.514L14.5857 20.4141L14.9209 20.079C15.6053 20.7617 16.5331 21.1444 17.4999 21.1426C17.9686 23.5433 18.2125 25.9823 18.2284 28.4282Z" fill="#4CAF50"/>
<path d="M12.4004 34.9851C9.78989 35.1911 7.50666 33.242 7.30053 30.6315C7.28093 30.3831 7.28093 30.1336 7.30053 29.8852V29.6492C7.09651 27.9231 7.71484 26.2015 8.97035 24.9996L14.4053 19.5647C14.5421 19.4281 14.7277 19.3516 14.9211 19.3519C15.1144 19.3516 15.3 19.4281 15.4369 19.5647C15.9859 20.1085 16.7273 20.4138 17.5001 20.4141C17.8567 20.4144 18.1607 20.6728 18.2184 21.0247C18.6921 23.4644 18.9394 25.9428 18.9572 28.4282C18.9919 32.0146 16.1127 34.9503 12.5262 34.9851C12.4843 34.9855 12.4424 34.9855 12.4004 34.9851ZM14.9663 21.064L10.002 26.0298C9.02308 26.9602 8.55877 28.309 8.75759 29.6448V29.8852C8.55836 31.6978 9.86625 33.3288 11.6789 33.5279C11.9186 33.5543 12.1606 33.5543 12.4004 33.5279C15.1894 33.5554 17.4727 31.3167 17.5002 28.5277C17.5005 28.4945 17.5005 28.4613 17.5002 28.4281C17.4941 26.2129 17.2844 24.0029 16.8737 21.826C16.1868 21.7257 15.5333 21.4646 14.9663 21.064Z" fill="#455A64"/>
<path d="M15.1833 14.6878C14.34 15.3775 13.8528 16.4107 13.8573 17.5C11.4568 17.9688 9.01774 18.2127 6.57188 18.2286C3.38045 18.256 0.77101 15.6912 0.743553 12.4998C0.74328 12.4666 0.74328 12.4334 0.743553 12.4002C0.552721 10.1769 2.20034 8.21982 4.42368 8.02899C4.65365 8.00925 4.88484 8.00925 5.11481 8.02899C6.72146 7.78317 8.34825 8.32548 9.48607 9.48605L14.5859 14.5859L15.1833 14.6878Z" fill="#4CAF50"/>
<path d="M6.57183 18.9571C2.98535 18.9918 0.0497095 16.1126 0.0149443 12.5261C0.0145345 12.4841 0.0145345 12.4422 0.0149443 12.4002C-0.19112 9.78971 1.75798 7.50648 4.36845 7.30035C4.61686 7.28075 4.86636 7.28075 5.11477 7.30035H5.35082C7.07733 7.09585 8.79967 7.71425 10.0018 8.97017L14.9384 13.9068L15.3085 13.9694C15.7052 14.0373 15.9716 14.4138 15.9037 14.8104C15.8741 14.9837 15.7828 15.1404 15.6466 15.2517C14.9726 15.8032 14.5829 16.629 14.5859 17.4999C14.5856 17.8565 14.3272 18.1605 13.9753 18.2183C11.5355 18.692 9.0571 18.9393 6.57183 18.9571ZM5.5883 8.75748H5.11477C3.3022 8.55825 1.67124 9.86614 1.47208 11.6788C1.44571 11.9185 1.44571 12.1604 1.47208 12.4002C1.44455 15.1893 3.68325 17.4725 6.47232 17.5001C6.50551 17.5004 6.53871 17.5004 6.5719 17.5001C8.78663 17.4939 10.9962 17.2842 13.1725 16.8735C13.2707 16.1856 13.532 15.5312 13.9345 14.9647L8.97022 10.0019C8.10656 9.0703 6.84968 8.60783 5.5883 8.75748Z" fill="#455A64"/>
<path d="M34.2566 22.5998C34.4474 24.8231 32.7998 26.7802 30.5764 26.9711C30.3465 26.9908 30.1153 26.9908 29.8853 26.9711C28.2787 27.2169 26.6519 26.6746 25.514 25.514C26.1843 27.583 25.82 32.7995 22.5998 32.7995C20.2277 32.7008 18.3273 30.8003 18.2286 28.4282C18.2127 25.9823 17.9688 23.5433 17.5 21.1427C19.5118 21.1427 21.1427 19.5119 21.1427 17.5001C23.5433 17.0312 25.9823 16.7873 28.4282 16.7715C31.6196 16.744 34.229 19.3089 34.2565 22.5003C34.2568 22.5334 34.2568 22.5666 34.2566 22.5998Z" fill="#4CAF50"/>
<path d="M22.5998 33.528C19.8227 33.4351 17.5928 31.2054 17.5 28.4281C17.4855 26.0218 17.2451 23.6221 16.7817 21.2607C16.7165 20.8637 16.9856 20.489 17.3826 20.4237C17.4214 20.4174 17.4607 20.4142 17.5001 20.4141C19.1095 20.4141 20.4143 19.1094 20.4143 17.4999C20.4146 17.1433 20.6729 16.8393 21.0248 16.7816C23.4646 16.3079 25.943 16.0606 28.4283 16.0429C32.0148 16.0081 34.9504 18.8873 34.9852 22.4738C34.9856 22.5158 34.9856 22.5577 34.9852 22.5997C35.1913 25.2102 33.2422 27.4934 30.6317 27.6996C30.3833 27.7192 30.1338 27.7192 29.8854 27.6996H29.6493C28.5767 27.7821 27.5003 27.5973 26.5166 27.1619C26.6601 28.8904 26.2449 30.6194 25.332 32.0941C24.7167 32.9971 23.6924 33.5347 22.5998 33.528ZM18.3437 21.7882C18.7463 23.9787 18.9516 26.2009 18.9571 28.4281C19.0675 30.3924 20.6355 31.9605 22.5998 32.0708C23.2258 32.0763 23.8112 31.7614 24.1516 31.2359C25.0752 29.5587 25.3148 27.5895 24.8204 25.7398C24.6962 25.3571 24.9058 24.9462 25.2885 24.822C25.5489 24.7375 25.8347 24.8061 26.0283 24.9996C26.9592 25.9786 28.3088 26.4424 29.6448 26.2424H29.8852C31.6977 26.4417 33.3287 25.1338 33.5279 23.3211C33.5542 23.0814 33.5542 22.8395 33.5279 22.5997C33.5554 19.8106 31.3167 17.5274 28.5276 17.4999C28.4944 17.4995 28.4612 17.4995 28.428 17.4999C26.2133 17.506 24.0038 17.7157 21.8274 18.1264C21.5582 19.9614 20.1629 21.4279 18.3437 21.7882Z" fill="#455A64"/>
<path d="M25.5139 25.514L20.4141 20.4141L25.5139 25.514Z" fill="#607D8B"/>
<path d="M25.514 26.2425C25.3206 26.2429 25.135 26.1664 24.9982 26.0298L19.8983 20.9299C19.6189 20.6405 19.6268 20.1793 19.9162 19.8997C20.1986 19.6271 20.6462 19.6271 20.9285 19.8997L26.0283 24.9996C26.3123 25.2845 26.3117 25.7458 26.0267 26.0299C25.8906 26.1657 25.7062 26.2421 25.514 26.2425Z" fill="#455A64"/>
<path d="M32.7996 12.4002C32.7009 14.7723 30.8004 16.6727 28.4283 16.7714C25.9825 16.7873 23.5434 17.0312 21.1429 17.5C21.1402 16.2914 20.5402 15.1623 19.54 14.4838L20.5746 14.4256L25.5141 9.48607C27.5832 8.81576 32.7996 9.18008 32.7996 12.4002Z" fill="#4CAF50"/>
<path d="M21.1427 18.2286C20.7404 18.2286 20.4142 17.9024 20.4142 17.5C20.4117 16.5321 19.9305 15.6281 19.129 15.0856C18.7968 14.8586 18.7116 14.4052 18.9387 14.0731C19.0663 13.8863 19.2733 13.7695 19.4991 13.7568L20.2568 13.7145L24.9996 8.97168C25.0813 8.89019 25.1812 8.82927 25.2911 8.79389C27.5837 8.14599 30.0413 8.46174 32.0957 9.66814C32.9981 10.2837 33.5351 11.3078 33.528 12.4002C33.4352 15.1774 31.2055 17.4072 28.4282 17.5C26.0218 17.5145 23.6221 17.755 21.2608 18.2183C21.2218 18.2253 21.1824 18.2287 21.1427 18.2286ZM21.0597 14.969C21.4191 15.4736 21.6674 16.0487 21.7883 16.6563C23.9787 16.2536 26.201 16.0483 28.4282 16.0429C30.3925 15.9326 31.9605 14.3645 32.0709 12.4002C32.0764 11.7742 31.7614 11.1889 31.236 10.8484C29.6095 9.9494 27.7046 9.69409 25.8987 10.133L21.0903 14.9414L21.0597 14.969Z" fill="#455A64"/>
<path d="M14.9211 20.079L14.586 20.4142L9.48614 25.514C7.4171 26.1843 2.20068 25.82 2.20068 22.5998C2.29945 20.2277 4.19985 18.3273 6.57194 18.2286C9.0178 18.2127 11.4568 17.9688 13.8574 17.5C13.8557 18.4667 14.2384 19.3945 14.9211 20.079Z" fill="#F44336"/>
<path d="M7.32975 26.534C5.76887 26.5891 4.22766 26.1722 2.90747 25.3377C2.00221 24.7217 1.46386 23.6947 1.47226 22.5998C1.56509 19.8226 3.79484 17.5928 6.57209 17.5C8.97847 17.4855 11.3782 17.245 13.7395 16.7817C14.1366 16.7165 14.5113 16.9855 14.5765 17.3826C14.5828 17.4214 14.586 17.4607 14.5861 17.5001C14.5868 18.2731 14.8926 19.0146 15.4371 19.5633C15.7215 19.8478 15.7215 20.3089 15.4371 20.5935L10.0022 26.0284C9.92048 26.1099 9.82062 26.1708 9.71072 26.2062C8.93783 26.4337 8.13529 26.5442 7.32975 26.534ZM13.212 18.351C11.0213 18.7512 8.79911 18.9541 6.57209 18.9571C4.60782 19.0675 3.0397 20.6356 2.9294 22.5998C2.92393 23.2259 3.23887 23.8112 3.76431 24.1516C5.39137 25.049 7.29567 25.3043 9.10162 24.8671L13.9348 20.0339C13.5786 19.5271 13.3325 18.9513 13.2121 18.3436V18.351H13.212Z" fill="#455A64"/>
<path d="M17.5001 13.8573C16.6544 13.8538 15.8343 14.1478 15.1834 14.6878L14.5859 14.5859L9.4861 9.48605C8.81586 7.41701 9.18011 2.20059 12.4003 2.20059C14.7724 2.29936 16.6728 4.19976 16.7716 6.57185C16.7874 9.01771 17.0313 11.4567 17.5001 13.8573Z" fill="#4CAF50"/>
<path d="M15.1835 15.4163C15.1419 15.4165 15.1005 15.4131 15.0596 15.4062L14.4622 15.3042C14.3136 15.2784 14.1766 15.2071 14.0702 15.1002L8.9704 10.0003C8.88892 9.91865 8.82799 9.8188 8.79261 9.7089C8.14368 7.41638 8.45951 4.95829 9.66686 2.90428C10.2827 2.00141 11.3075 1.46443 12.4003 1.47194C15.1775 1.56476 17.4073 3.79451 17.5002 6.57177C17.5146 8.97815 17.7551 11.3778 18.2185 13.7392C18.2836 14.1362 18.0146 14.5109 17.6176 14.5762C17.5788 14.5825 17.5394 14.5857 17.5001 14.5858C16.8254 14.5822 16.171 14.8159 15.6511 15.2459C15.5201 15.3558 15.3546 15.4162 15.1835 15.4163ZM14.9372 13.9068L14.9926 13.917C15.491 13.5663 16.0582 13.3254 16.6566 13.2103C16.2539 11.0203 16.0486 8.79852 16.0432 6.57177C15.9329 4.6075 14.3648 3.03938 12.4005 2.92907C11.7745 2.92361 11.1892 3.23854 10.8487 3.76398C9.95134 5.39105 9.6961 7.29535 10.1333 9.10129L14.9372 13.9068Z" fill="#455A64"/>
</g>
<defs>
<clipPath id="clip0">
<rect width="35" height="35" fill="white"/>
</clipPath>
</defs>
</svg>
