<svg width="36" height="36" viewBox="0 0 36 36" fill="none" xmlns="http://www.w3.org/2000/svg">
<g clip-path="url(#clip0)">
<path d="M2.30535 2.39793C-0.463964 5.27443 0.102819 8.33007 0.102819 17.613C0.102819 25.3218 -1.24219 33.0498 5.79709 34.8691C7.99521 35.4344 27.4714 35.4344 29.6666 34.8661C32.5974 34.1099 34.982 31.7327 35.308 27.5875C35.3535 27.009 35.3535 8.22728 35.3065 7.63701C34.96 3.22167 32.2421 0.677017 28.6608 0.161625C27.84 0.0426885 27.6755 0.00744804 23.4643 0.000106279C8.52675 0.00744804 5.25233 -0.657716 2.30535 2.39793Z" fill="url(#paint0_linear)"/>
<path d="M17.6175 4.60912C12.2859 4.60912 7.22306 4.13484 5.28925 9.09787C4.49046 11.1477 4.60646 13.8098 4.60646 17.6216C4.60646 20.9666 4.49927 24.1103 5.28925 26.144C7.21866 31.1099 12.3226 30.6342 17.6146 30.6342C22.72 30.6342 27.9841 31.1657 29.9414 26.144C30.7417 24.0736 30.6242 21.4511 30.6242 17.6216C30.6242 12.5382 30.9046 9.25645 28.4393 6.79255C25.9431 4.29636 22.5673 4.60912 17.6117 4.60912H17.6175ZM16.4517 6.95407C27.5729 6.93645 28.9884 5.7001 28.2073 22.8754C27.9298 28.95 23.3044 28.2833 17.619 28.2833C7.25243 28.2833 6.95436 27.9867 6.95436 17.6158C6.95436 7.1244 7.77663 6.95995 16.4517 6.95114V6.95407ZM24.5628 9.11402C23.7009 9.11402 23.002 9.81295 23.002 10.6749C23.002 11.5368 23.7009 12.2357 24.5628 12.2357C25.4247 12.2357 26.1237 11.5368 26.1237 10.6749C26.1237 9.81295 25.4247 9.11402 24.5628 9.11402ZM17.6175 10.9392C13.9276 10.9392 10.9365 13.9317 10.9365 17.6216C10.9365 21.3116 13.9276 24.3026 17.6175 24.3026C21.3075 24.3026 24.2971 21.3116 24.2971 17.6216C24.2971 13.9317 21.3075 10.9392 17.6175 10.9392ZM17.6175 13.2841C23.3514 13.2841 23.3588 21.9592 17.6175 21.9592C11.8851 21.9592 11.8763 13.2841 17.6175 13.2841Z" fill="white"/>
</g>
<defs>
<linearGradient id="paint0_linear" x1="2.37292" y1="32.9897" x2="35.1252" y2="4.64302" gradientUnits="userSpaceOnUse">
<stop stop-color="#FFDD55"/>
<stop offset="0.5" stop-color="#FF543E"/>
<stop offset="1" stop-color="#C837AB"/>
</linearGradient>
<clipPath id="clip0">
<rect width="35.2404" height="35.2404" fill="white"/>
</clipPath>
</defs>
</svg>
