<svg width="35" height="35" viewBox="0 0 35 35" fill="none" xmlns="http://www.w3.org/2000/svg">
<g clip-path="url(#clip0)">
<path d="M17.5 1.45834C7.83563 1.45834 0 7.59501 0 15.1652C0 20.0594 3.27542 24.3542 8.20312 26.7779C5.75604 35.1619 4.31813 35.7073 14.3923 28.6548C15.4015 28.7963 16.4398 28.8706 17.5 28.8706C27.1644 28.8706 35 22.734 35 15.1638C35 7.59501 27.1644 1.45834 17.5 1.45834Z" fill="#3E2723"/>
<path d="M15.1434 12.0604C14.6811 10.7581 12.9136 10.7567 12.4528 12.059C11.0178 16.5098 9.09571 19.2559 10.277 19.7969C11.849 20.51 11.8826 18.9059 12.2588 18.1927H15.3374C15.7122 18.9029 15.7486 20.5086 17.3192 19.7969C18.5049 19.2559 16.6061 16.5959 15.1434 12.0604ZM12.7897 16.4165L13.7988 13.5713L14.8065 16.4165H12.7897Z" fill="#FFEB3B"/>
<path d="M7.82388 19.95C6.0768 19.95 7.1093 17.5335 6.81471 13.0346C6.18909 12.9267 4.24805 13.4677 4.24805 12.0531C4.24805 11.5121 4.69284 11.0717 5.23826 11.0717C8.91034 11.3342 11.3983 10.3862 11.3983 12.0531C11.3983 13.4925 9.53888 12.9135 8.83159 13.0346C8.53992 17.519 9.56805 19.95 7.82388 19.95Z" fill="#FFEB3B"/>
<path d="M19.1829 19.8027C17.4927 19.8027 18.5208 17.5204 18.216 12.0721C18.216 10.745 20.2767 10.7464 20.2767 12.0721V17.9637C21.2523 18.0935 23.3902 17.4825 23.3902 18.8825C23.3887 20.351 21.0919 19.616 19.1829 19.8027Z" fill="#FFEB3B"/>
<path d="M28.5189 19.5125L26.1506 16.396L25.8006 16.7446V18.9321C25.8006 19.4863 25.3485 19.9354 24.7899 19.9354C23.0356 19.9354 24.087 17.4096 23.7808 12.0721C23.7808 11.5194 24.2329 11.0688 24.7899 11.0688C26.3139 11.0688 25.6562 13.2242 25.7991 14.2275C28.6574 11.496 28.5889 11.2058 29.1766 11.2058C29.9874 11.2058 30.4847 12.2135 29.9452 12.7488L27.6439 15.034L30.1289 18.305C30.9397 19.3623 29.3195 20.5742 28.5189 19.5125Z" fill="#FFEB3B"/>
</g>
<defs>
<clipPath id="clip0">
<rect width="35" height="35" fill="white"/>
</clipPath>
</defs>
</svg>
