<svg width="36" height="36" viewBox="0 0 36 36" fill="none" xmlns="http://www.w3.org/2000/svg">
<g clip-path="url(#clip0)">
<path d="M17.6202 1.42682C7.90707 1.42682 0 7.88463 0 15.8211C0 22.9294 6.26986 28.885 14.7349 30.0171C15.309 30.139 16.0902 30.3989 16.2884 30.8893C16.4646 31.3342 16.4044 32.0214 16.3442 32.4854L16.1034 33.9919C16.0373 34.4368 15.751 35.7437 17.6437 34.9449C19.5394 34.149 27.7988 28.9188 31.4991 24.6385C34.0305 21.8486 35.2404 18.9898 35.2404 15.8211C35.2404 7.88463 27.3334 1.42682 17.6202 1.42682ZM10.7234 20.5403H7.21988C6.7133 20.5403 6.29482 20.1189 6.29482 19.6109V12.5613C6.29482 12.0518 6.7133 11.6304 7.21988 11.6304C7.73087 11.6304 8.14495 12.0518 8.14495 12.5613V18.6799H10.7234C11.2344 18.6799 11.647 19.0984 11.647 19.6109C11.647 20.1189 11.2329 20.5403 10.7234 20.5403ZM14.3443 19.6109C14.3443 20.1189 13.9302 20.5403 13.4178 20.5403C12.9112 20.5403 12.4971 20.1189 12.4971 19.6109V12.5613C12.4971 12.0518 12.9112 11.6304 13.4222 11.6304C13.9302 11.6304 14.3443 12.0518 14.3443 12.5613V19.6109ZM22.7741 19.6109C22.7741 20.0103 22.5186 20.3641 22.1398 20.4919C22.0458 20.5227 21.9445 20.5374 21.8476 20.5374C21.5378 20.5374 21.2735 20.4038 21.0987 20.1674L17.5116 15.266V19.6094C17.5116 20.1175 17.1019 20.5389 16.585 20.5389C16.077 20.5389 15.6658 20.1175 15.6658 19.6094V12.5613C15.6658 12.1619 15.9199 11.8081 16.2972 11.6818C16.3853 11.648 16.4969 11.6333 16.5821 11.6333C16.8684 11.6333 17.1327 11.7875 17.3089 12.0092L20.924 16.9297V12.5613C20.924 12.0518 21.3381 11.6304 21.8491 11.6304C22.3556 11.6304 22.7741 12.0518 22.7741 12.5613V19.6109ZM28.4346 15.1544C28.9471 15.1544 29.3597 15.5759 29.3597 16.0868C29.3597 16.5964 28.9471 17.0178 28.4346 17.0178H25.8577V18.6799H28.4346C28.9471 18.6799 29.3597 19.0984 29.3597 19.6109C29.3597 20.1189 28.9471 20.5403 28.4346 20.5403H24.9311C24.4246 20.5403 24.0105 20.1189 24.0105 19.6109V12.5613C24.0105 12.0518 24.4246 11.6304 24.9355 11.6304H28.439C28.9471 11.6304 29.3597 12.0518 29.3597 12.5613C29.3597 13.0767 28.9471 13.4923 28.4346 13.4923H25.8577V15.1544H28.4346Z" fill="#4CAF50"/>
</g>
<defs>
<clipPath id="clip0">
<rect width="35.2404" height="35.2404" fill="white" transform="translate(0 0.692139)"/>
</clipPath>
</defs>
</svg>
