<svg width="36" height="36" viewBox="0 0 36 36" fill="none" xmlns="http://www.w3.org/2000/svg">
<g clip-path="url(#clip0)">
<path d="M32.0527 0H3.18778C1.42724 0 0 1.42724 0 3.18778V32.0526C0 33.8132 1.42724 35.2404 3.18778 35.2404H32.0526C33.8132 35.2404 35.2404 33.8132 35.2404 32.0526V3.18778C35.2404 1.42724 33.8132 0 32.0527 0ZM10.9049 30.4289C10.9049 30.9413 10.4896 31.3566 9.97719 31.3566H6.02824C5.51587 31.3566 5.10055 30.9413 5.10055 30.4289V13.875C5.10055 13.3627 5.51587 12.9474 6.02824 12.9474H9.97719C10.4896 12.9474 10.9049 13.3627 10.9049 13.875V30.4289ZM8.00272 11.3869C5.93082 11.3869 4.25118 9.70726 4.25118 7.63537C4.25118 5.56347 5.93082 3.88383 8.00272 3.88383C10.0746 3.88383 11.7543 5.56347 11.7543 7.63537C11.7543 9.70726 10.0747 11.3869 8.00272 11.3869ZM31.542 30.5036C31.542 30.9747 31.1601 31.3566 30.6891 31.3566H26.4515C25.9805 31.3566 25.5986 30.9747 25.5986 30.5036V22.7389C25.5986 21.5806 25.9383 17.6631 22.5715 17.6631C19.9599 17.6631 19.4302 20.3445 19.3238 21.5479V30.5036C19.3238 30.9747 18.942 31.3566 18.4709 31.3566H14.3725C13.9014 31.3566 13.5195 30.9747 13.5195 30.5036V13.8003C13.5195 13.3293 13.9014 12.9474 14.3725 12.9474H18.4709C18.9419 12.9474 19.3238 13.3293 19.3238 13.8003V15.2445C20.2922 13.7913 21.7314 12.6696 24.7955 12.6696C31.5809 12.6696 31.542 19.0088 31.542 22.4919V30.5036Z" fill="#0077B7"/>
</g>
<defs>
<clipPath id="clip0">
<rect width="35.2404" height="35.2404" fill="white"/>
</clipPath>
</defs>
</svg>
