<svg width="35" height="35" viewBox="0 0 35 35" fill="none" xmlns="http://www.w3.org/2000/svg">
<g clip-path="url(#clip0)">
<path d="M33.8545 20.3527C33.2381 18.8057 32.446 17.3452 31.4693 15.9898C31.3648 15.8453 31.2561 15.7316 31.3528 15.4925C31.8225 14.3302 31.6702 13.203 31.0701 12.1219C30.7998 11.6344 30.4792 11.1711 30.4484 10.5837C30.4034 9.73603 30.1884 8.92162 29.968 8.10615C29.1993 5.26122 27.6676 2.98768 25.0309 1.56008C23.5346 0.749925 21.9263 0.288699 20.2327 0.102367C18.4881 -0.089633 16.7632 -0.0141791 15.0455 0.349629C12.2045 0.952198 10.1144 2.62706 8.4959 4.94913C7.43282 6.47521 6.67615 8.13484 6.44979 10.0148C6.40622 10.3765 6.53835 10.775 6.30455 11.1077C6.10157 11.3953 5.98573 11.7184 5.92799 12.0553C5.8412 12.5601 5.72501 13.0394 5.46605 13.4981C5.15149 14.0543 5.06682 14.6933 5.19541 15.3182C5.25103 15.5867 5.19364 15.7266 5.00731 15.8666C3.90596 16.6909 2.9952 17.6842 2.23004 18.8327C1.14003 20.4678 0.496368 22.2401 0.391866 24.203C0.349711 24.9912 0.445002 25.761 0.722375 26.5073C0.856634 26.8687 1.03411 27.038 1.46062 26.914C1.81947 26.8102 2.12589 26.649 2.39759 26.4099C2.96438 25.9126 3.42667 25.333 3.73274 24.6373C3.76816 24.5565 3.75895 24.4322 3.88825 24.4386C4.00586 24.4442 4.01684 24.547 4.03703 24.6415C4.22053 25.491 4.61552 26.2555 5.03919 27.0005C5.49121 27.7964 6.13912 28.4373 6.81643 29.0374C7.05271 29.2471 7.38818 29.3448 7.52031 29.7001C7.03146 29.6994 6.57944 29.7689 6.15187 29.9159C5.42142 30.1677 4.77209 30.5408 4.60312 31.3842C4.44158 32.1901 4.38597 32.9861 5.12279 33.5827C5.41434 33.8186 5.73705 34.006 6.08492 34.1544C7.31167 34.6776 8.61493 34.8473 9.92386 34.9316C11.542 35.0358 13.1673 35.0747 14.754 34.6348C15.6736 34.379 16.5248 33.9649 17.3226 33.4424C17.3981 33.3928 17.448 33.2794 17.5557 33.3106C18.1898 33.4941 18.8582 33.3035 19.5005 33.554C20.5313 33.9564 21.5965 34.2628 22.6958 34.4399C24.3271 34.7035 25.9644 34.8271 27.6105 34.6178C28.7261 34.4757 29.8193 34.2302 30.7963 33.6372C32.0524 32.8745 32.0907 31.5504 30.9117 30.6934C30.3308 30.2712 29.7144 29.9191 29.0679 29.613C28.9007 29.534 28.7169 29.4798 28.5847 29.2967C29.8855 28.1014 30.5412 26.5183 31.1969 24.9009C31.5703 25.5923 31.9337 26.2487 32.4159 26.8255C32.9292 27.4387 33.3762 27.4241 33.8796 26.8113C34.0801 26.5669 34.2271 26.2973 34.3185 25.9912C34.8966 24.0517 34.581 22.1771 33.8545 20.3527ZM19.4899 8.03955C19.4679 7.29777 19.6223 6.57794 20.0255 5.91976C20.8048 4.64661 22.1251 4.61933 22.9026 5.89071C23.5754 6.99205 23.5948 8.37148 23.2505 9.58831C23.084 10.1764 22.8421 10.7045 22.2583 11.0032C21.4651 11.4088 20.7325 11.2483 20.1994 10.5317C19.6542 9.79908 19.4576 8.962 19.4899 8.03955ZM14.3172 5.6477C15.0593 4.68841 16.1444 4.68345 16.8809 5.64168C17.4384 6.36788 17.6078 7.21275 17.6216 8.17771C17.5947 9.03037 17.4133 9.91067 16.7721 10.6216C16.0331 11.4417 15.0445 11.3988 14.3572 10.5398C13.3653 9.30031 13.3459 6.90279 14.3172 5.6477ZM11.0132 13.8672C12.0777 13.1357 13.2757 12.711 14.5209 12.4407C17.2588 11.8448 20.0039 11.7705 22.7393 12.4711C23.8495 12.7556 24.9247 13.1407 25.891 13.7705C26.4904 14.1616 26.4837 14.3065 25.8836 14.6745C25.2424 15.0674 24.575 15.3926 23.7358 15.3901C24.0384 15.0546 24.4213 14.8662 24.6558 14.3547C20.576 17.1606 16.5819 17.3866 12.5683 14.4797C12.7458 14.7659 12.9232 15.0515 13.1415 15.4029C12.3639 15.208 11.6678 15.0235 11.033 14.6802C10.5314 14.4078 10.5381 14.1938 11.0132 13.8672ZM16.1175 33.4328C15.6258 33.9132 14.9729 34.0722 14.3473 34.2097C11.981 34.7322 9.5976 34.8452 7.23054 34.2245C6.49584 34.0322 5.75724 33.7775 5.19683 33.21C4.78166 32.7902 4.78909 32.4289 5.20391 31.9981C5.46109 31.7307 5.76079 31.5167 6.03922 31.24C5.82561 31.2779 5.61023 31.3095 5.39875 31.3594C5.29354 31.3839 5.16991 31.4668 5.10685 31.3456C5.06363 31.2624 5.07036 31.1161 5.11571 31.0296C5.21844 30.8369 5.35978 30.6609 5.55355 30.5489C5.82384 30.392 6.09555 30.2329 6.37965 30.1043C7.05555 29.7979 7.64926 29.7728 8.31807 30.2864C9.60646 31.2751 11.1028 31.8919 12.6558 32.3711C13.7571 32.7112 14.8804 32.933 16.0165 33.1051C16.1029 33.1186 16.223 33.0722 16.2684 33.176C16.3275 33.3113 16.1908 33.3609 16.1175 33.4328ZM28.855 29.8107C29.2971 30.0271 29.7633 30.2149 30.2798 30.629C29.8614 30.6616 29.5011 30.674 29.1933 30.8702C29.1327 30.9078 29.0459 30.9804 29.0498 31.031C29.0598 31.1632 29.182 31.1242 29.2698 31.1239C29.6776 31.1235 30.086 31.103 30.4927 31.1242C31.2454 31.1628 31.6252 31.7374 31.3439 32.4321C30.9759 33.3418 30.1409 33.6719 29.3024 33.9369C26.6523 34.775 24.0235 34.5126 21.4134 33.7155C21.1258 33.6273 20.7843 33.6393 20.6451 33.2465C23.3784 32.8139 25.7933 31.7448 27.8578 29.9329C28.2393 29.5978 28.4271 29.6002 28.855 29.8107ZM29.8356 24.1339C29.7434 25.7032 29.1377 27.0844 28.1876 28.3097C26.3551 30.6736 23.9392 32.1342 21.0361 32.793C19.9366 33.0431 18.82 32.9167 17.7147 32.809C16.0176 32.6443 14.3441 32.3389 12.7652 31.6687C11.784 31.2517 10.8399 30.7668 9.99754 30.0841C8.35775 28.7547 7.07645 27.1917 6.65135 25.073C6.26665 23.1558 6.42287 21.2773 7.24436 19.4791C7.30245 19.3523 7.37649 19.2326 7.43671 19.1065C7.58337 18.8033 7.72826 18.6732 8.07187 18.935C8.44099 19.2152 8.87423 19.4126 9.28728 19.6315C9.44563 19.7154 9.48672 19.7845 9.46086 19.9868C9.28232 21.4176 9.12858 22.8491 9.28976 24.2983C9.38612 25.1619 9.90296 25.7068 10.6171 26.0167C11.603 26.4443 12.6664 26.3912 13.7114 26.2211C14.1379 26.152 14.6215 25.5976 14.6027 24.9643L14.5347 22.0942L14.5103 21.4976C15.647 21.8161 16.8153 21.9174 17.9755 21.945C20.7357 22.0109 23.3224 21.3421 25.7982 20.1664C26.5322 19.8182 27.2411 19.4267 27.9156 18.9765C28.0831 18.8649 28.1476 18.8536 28.2723 19.0371C29.3155 20.578 29.9471 22.244 29.8356 24.1339ZM13.0674 22.9543L13.0352 21.8749C13.0561 21.6748 12.941 21.3095 13.263 21.2557C13.6611 21.1891 14.0313 21.4728 14.0696 21.8745C14.1649 22.876 14.2293 23.8881 14.1932 24.904C14.1758 25.3932 13.936 25.6873 13.3852 25.7156C12.5984 25.7571 11.8155 25.7836 11.0433 25.6118C9.95964 25.3699 9.5767 24.8392 9.54446 23.6114C9.51365 22.4548 9.78925 21.3425 9.99754 20.2192C10.0308 20.0392 10.0996 20.0456 10.2476 20.1086C10.9349 20.4034 11.6083 20.736 12.3359 20.9262C12.5552 20.9833 12.5215 21.1342 12.5276 21.2893C12.5545 22.0127 12.6483 22.7258 12.8931 23.4113C12.9332 23.5232 12.992 23.6298 13.0791 23.8264L13.0674 22.9543ZM31.125 14.8637C30.8724 16.2552 30.0694 17.2704 28.911 17.991C26.4327 19.5333 23.8038 20.731 20.9083 21.2624C19.2291 21.5702 17.5507 21.5579 15.856 21.3411C13.8368 21.0832 11.9193 20.5036 10.0769 19.6733C8.53947 18.9804 7.07857 18.15 6.0169 16.7809C5.24076 15.7805 5.13555 14.7348 5.84864 13.8042C6.06579 15.1358 6.81006 16.0954 7.84941 16.8673C7.45513 16.1921 7.05378 15.5212 6.66871 14.841C6.25779 14.1163 6.29428 13.3249 6.33253 12.5338C6.37752 12.5292 6.42287 12.5147 6.43031 12.5257C7.84197 14.6186 9.85691 15.8917 12.1861 16.7122C15.1309 17.7511 18.1831 18.0746 21.2664 17.726C24.4029 17.3718 27.2173 16.1663 29.5844 14.0206C29.7353 13.8842 29.8968 13.7606 30.0159 13.6614C29.4749 15.9048 27.8723 17.3353 25.9367 18.4912C28.5985 17.529 29.9762 15.4223 30.904 12.9122C31.1831 13.333 31.2564 14.1379 31.125 14.8637Z" fill="black"/>
<path d="M20.484 8.63822C20.6689 8.6747 20.693 8.49439 20.7288 8.36084C20.7975 8.10614 20.8358 7.77351 21.1525 7.76855C21.443 7.76465 21.455 8.09481 21.4915 8.31019C21.5205 8.48164 21.6226 8.66195 21.8107 8.63574C22.0494 8.60244 22.0221 7.39305 21.4089 7.1844C20.8439 6.9715 20.2888 7.51703 20.303 8.28468C20.3058 8.42248 20.3073 8.60385 20.484 8.63822Z" fill="black"/>
<path d="M16.5703 9.29605C16.8654 9.31801 17.033 9.1207 17.1431 8.89151C17.418 8.31976 17.4102 7.74269 17.0783 7.19539C16.8371 6.79828 16.4368 6.77986 16.1605 7.13941C15.9412 7.42458 15.8845 7.7604 15.8923 8.11075C15.8976 8.36049 15.9181 8.60705 16.0265 8.83908C16.1367 9.07607 16.2866 9.27373 16.5703 9.29605Z" fill="black"/>
</g>
<defs>
<clipPath id="clip0">
<rect width="35" height="35.0004" fill="white"/>
</clipPath>
</defs>
</svg>
