<svg width="35" height="35" viewBox="0 0 35 35" fill="none" xmlns="http://www.w3.org/2000/svg">
<g clip-path="url(#clip0)">
<path d="M31.0989 13.5741C29.9935 13.5741 29.0208 14.0393 28.3047 14.7641C25.6724 12.915 22.1229 11.725 18.1897 11.5981L20.2329 2.256L26.7385 3.73767C26.7385 5.3535 28.0364 6.67329 29.6289 6.67329C31.252 6.67329 32.5572 5.3185 32.5572 3.70121C32.5572 2.08392 31.2608 0.729126 29.6304 0.729126C28.4943 0.729126 27.5143 1.42475 27.0258 2.37558L19.8406 0.759751C19.4789 0.662043 19.1245 0.924543 19.0283 1.29204L16.7854 11.5908C12.8829 11.7556 9.3712 12.9441 6.73015 14.7948C6.01411 14.0393 5.00349 13.5741 3.89807 13.5741C-0.202763 13.5741 -1.54589 19.1581 2.20932 21.067C2.07661 21.6577 2.01682 22.2877 2.01682 22.9162C2.01682 29.1885 8.98036 34.2708 17.5306 34.2708C26.1172 34.2708 33.0808 29.1885 33.0808 22.9162C33.0808 22.2877 33.0152 21.6285 32.8533 21.0364C36.5327 19.1202 35.1779 13.577 31.0989 13.5741ZM8.16807 21.4637C8.16807 19.8173 9.46599 18.4916 11.0964 18.4916C12.6889 18.4916 13.9883 19.8085 13.9883 21.4637C13.9883 23.081 12.6904 24.3993 11.0964 24.3993C9.47328 24.4066 8.16807 23.081 8.16807 21.4637ZM23.9749 28.4608C21.2902 31.185 13.7141 31.185 11.0279 28.4608C10.7318 28.1983 10.7318 27.7345 11.0279 27.4356C11.286 27.1731 11.7439 27.1731 12.002 27.4356C14.0524 29.5691 20.8541 29.6056 22.9935 27.4356C23.2516 27.1731 23.7095 27.1731 23.9677 27.4356C24.2695 27.736 24.2695 28.1998 23.9749 28.4608ZM23.9152 24.4052C22.3227 24.4052 21.0247 23.0883 21.0247 21.4725C21.0247 19.826 22.3227 18.5004 23.9152 18.5004C25.5383 18.5004 26.8435 19.8173 26.8435 21.4725C26.8362 23.081 25.5383 24.4052 23.9152 24.4052Z" fill="#FF5722"/>
</g>
<defs>
<clipPath id="clip0">
<rect width="35" height="35" fill="white"/>
</clipPath>
</defs>
</svg>
