<svg width="46" height="48" viewBox="0 0 46 48" fill="none" xmlns="http://www.w3.org/2000/svg">
<g filter="url(#filter0_d)">
<path d="M34.7188 25.9375C32.4034 25.9375 30.3462 27.0627 29.0642 28.7946L18.0275 23.1544C18.2127 22.5253 18.3125 21.8601 18.3125 21.1719C18.3125 20.2398 18.1298 19.3497 17.7989 18.5349L29.3661 11.5851C30.6567 13.0999 32.5773 14.0625 34.7188 14.0625C38.5958 14.0625 41.75 10.9083 41.75 7.03125C41.75 3.15422 38.5958 0 34.7188 0C30.8417 0 27.6875 3.15422 27.6875 7.03125C27.6875 7.92734 27.8563 8.78461 28.1633 9.57344L16.5672 16.5406C15.2775 15.0705 13.386 14.1406 11.2812 14.1406C7.40422 14.1406 4.25 17.2948 4.25 21.1719C4.25 25.0489 7.40422 28.2031 11.2812 28.2031C13.6345 28.2031 15.7213 27.0409 16.9982 25.2605L28.0029 30.8843C27.798 31.5432 27.6875 32.2433 27.6875 32.9688C27.6875 36.8458 30.8417 40 34.7188 40C38.5958 40 41.75 36.8458 41.75 32.9688C41.75 29.0917 38.5958 25.9375 34.7188 25.9375ZM34.7188 2.34375C37.3034 2.34375 39.4062 4.44656 39.4062 7.03125C39.4062 9.61594 37.3034 11.7188 34.7188 11.7188C32.1341 11.7188 30.0312 9.61594 30.0312 7.03125C30.0312 4.44656 32.1341 2.34375 34.7188 2.34375ZM11.2812 25.8594C8.69656 25.8594 6.59375 23.7566 6.59375 21.1719C6.59375 18.5872 8.69656 16.4844 11.2812 16.4844C13.8659 16.4844 15.9688 18.5872 15.9688 21.1719C15.9688 23.7566 13.8659 25.8594 11.2812 25.8594ZM34.7188 37.6562C32.1341 37.6562 30.0312 35.5534 30.0312 32.9688C30.0312 30.3841 32.1341 28.2812 34.7188 28.2812C37.3034 28.2812 39.4062 30.3841 39.4062 32.9688C39.4062 35.5534 37.3034 37.6562 34.7188 37.6562Z" fill="white"/>
</g>
<defs>
<filter id="filter0_d" x="-1" y="0" width="48" height="48" filterUnits="userSpaceOnUse" color-interpolation-filters="sRGB">
<feFlood flood-opacity="0" result="BackgroundImageFix"/>
<feColorMatrix in="SourceAlpha" type="matrix" values="0 0 0 0 0 0 0 0 0 0 0 0 0 0 0 0 0 0 127 0"/>
<feOffset dy="4"/>
<feGaussianBlur stdDeviation="2"/>
<feColorMatrix type="matrix" values="0 0 0 0 0 0 0 0 0 0 0 0 0 0 0 0 0 0 0.25 0"/>
<feBlend mode="normal" in2="BackgroundImageFix" result="effect1_dropShadow"/>
<feBlend mode="normal" in="SourceGraphic" in2="effect1_dropShadow" result="shape"/>
</filter>
</defs>
</svg>
