<svg width="36" height="36" viewBox="0 0 36 36" fill="none" xmlns="http://www.w3.org/2000/svg">
<g clip-path="url(#clip0)">
<path d="M34.2258 22.0515C36.7778 10.5836 26.7313 0.165643 14.9331 2.16554C8.52818 -1.80929 0 2.6824 0 10.3032C0 12.0755 0.488961 13.7347 1.33914 15.1649C-1.03225 26.6592 9.09643 36.9274 20.8844 34.7909C22.2587 35.5177 23.8269 35.9318 25.4935 35.9318C32.7604 35.9318 37.4136 28.3947 34.2258 22.0515ZM17.7612 29.8807C14.3223 29.8807 10.9627 29.0511 8.97456 26.2113C6.01143 22.0206 9.91871 19.9238 11.8364 21.5214C13.4369 22.8708 12.9347 26.135 17.6349 26.135C19.7067 26.135 22.2646 25.251 22.2646 23.1968C22.2646 19.0634 13.0948 21.0192 9.44884 16.5128C8.1097 14.8624 7.85715 11.9507 9.5017 9.83916C12.3679 6.15065 20.7786 5.926 24.3952 8.71146C27.7342 11.2958 26.8326 14.7258 24.1382 14.7258C20.8976 14.7258 22.6009 10.4852 17.3691 10.4852C13.5764 10.4852 12.0845 13.1826 14.7555 14.4953C18.3103 16.2603 27.6035 15.7096 27.6035 22.7225C27.5918 27.6518 22.8358 29.8807 17.7612 29.8807Z" fill="#03A9F4"/>
</g>
<defs>
<clipPath id="clip0">
<rect width="35.2404" height="35.2404" fill="white" transform="translate(0 0.692139)"/>
</clipPath>
</defs>
</svg>
