<svg width="36" height="36" viewBox="0 0 36 36" fill="none" xmlns="http://www.w3.org/2000/svg">
<g clip-path="url(#clip0)">
<path d="M28.9372 34.6371C21.4002 35.4415 13.8403 35.4415 6.30323 34.6371C3.29788 34.3163 0.924083 31.9426 0.603329 28.9369C-0.20111 21.3999 -0.20111 13.8403 0.603329 6.30323C0.924083 3.29788 3.29788 0.924083 6.30323 0.603329C13.8403 -0.20111 21.3999 -0.20111 28.9369 0.603329C31.9426 0.924083 34.3163 3.29788 34.6371 6.30323C35.4415 13.8403 35.4415 21.3999 34.6371 28.9369C34.3163 31.9426 31.9428 34.3163 28.9372 34.6371Z" fill="url(#paint0_linear)"/>
<path d="M32.7206 7.57795C32.4362 4.91109 30.3299 2.80455 27.6628 2.51982C20.9745 1.80626 14.2664 1.80626 7.57816 2.51982C4.9113 2.80455 2.80476 4.91109 2.52004 7.57795C1.80647 14.2662 1.80647 20.9743 2.52004 27.6623C2.80476 30.3294 4.9113 32.436 7.57816 32.7204C14.2664 33.4342 20.9745 33.4342 27.6625 32.7204C30.3296 32.436 32.4362 30.3294 32.7206 27.6623C33.4345 20.9743 33.4345 14.2662 32.7206 7.57795Z" fill="url(#paint1_linear)"/>
<path d="M0.52832 28.2065C0.552518 28.45 0.577522 28.6936 0.603602 28.9372C0.924356 31.9426 3.29815 34.3164 6.30377 34.6371C13.8408 35.4416 21.4004 35.4416 28.9375 34.6371C31.9431 34.3164 34.3166 31.9426 34.6374 28.9372C34.6635 28.6936 34.6885 28.45 34.7129 28.2065H0.52832Z" fill="url(#paint2_linear)"/>
<path d="M34.6374 28.937C34.9065 26.4161 35.085 23.8928 35.174 21.3685L22.4783 8.67274C20.831 6.86786 18.6107 6.69821 17.8452 6.69821H17.8442C17.8243 6.69821 17.8054 6.69821 17.7874 6.69848C17.7874 6.69848 17.415 6.70224 17.3855 6.70224C16.4267 6.70224 13.1775 6.96923 11.6444 10.4061C11.129 11.5625 11.2524 13.5263 11.3516 15.1042C11.3632 15.2903 11.3758 15.4836 11.3863 15.6702C11.307 15.714 11.1621 15.7688 10.9341 15.7688C10.6297 15.7688 10.2703 15.6726 9.86537 15.483C9.75783 15.4325 9.63388 15.4075 9.49703 15.4075C9.02275 15.4075 8.45572 15.7194 8.36726 16.1842C8.32075 16.4286 8.3885 16.7548 8.84611 17.0782C8.92247 17.1995 10.8747 19.1565 11.0169 19.2662C10.8016 19.7357 9.36609 22.6189 6.40376 23.1069C6.1607 23.147 5.98729 23.3634 6.00073 23.6092C6.00476 23.6823 6.02224 23.7552 6.05208 23.8256C6.12253 23.9901 6.26045 24.1412 6.46667 24.2805L17.4261 35.2397C21.2649 35.2466 25.104 35.0463 28.9372 34.6371C31.9431 34.3164 34.3166 31.9426 34.6374 28.937Z" fill="url(#paint3_linear)"/>
<path d="M17.7638 28.3013C17.7052 28.3013 17.6474 28.2997 17.5898 28.2968H17.5896C17.553 28.2997 17.5146 28.3013 17.4761 28.3013C16.1278 28.3013 15.2626 27.6897 14.4256 27.0979C13.8478 26.6898 13.3025 26.3042 12.6602 26.1972C12.3467 26.1453 12.0346 26.119 11.7329 26.119C11.1898 26.119 10.7612 26.2029 10.4483 26.2642C10.2582 26.3013 10.0939 26.3333 9.96944 26.3333C9.83931 26.3333 9.69816 26.305 9.63686 26.0956C9.58336 25.9138 9.54491 25.738 9.50781 25.5681C9.41236 25.1301 9.34434 24.861 9.16097 24.8327C7.02243 24.5026 6.4105 24.052 6.27392 23.7325C6.25456 23.6868 6.24354 23.6411 6.24112 23.5957C6.23413 23.4728 6.32097 23.3645 6.44249 23.3446C9.72962 22.8034 11.2038 19.4436 11.2651 19.3009C11.2667 19.2968 11.2686 19.2931 11.2702 19.289C11.4716 18.8814 11.5108 18.5274 11.3877 18.2375C11.1621 17.7057 10.4265 17.4721 9.93933 17.3175C9.82022 17.2798 9.7073 17.2441 9.61804 17.2091C8.64637 16.8249 8.56544 16.4305 8.60362 16.2294C8.66868 15.8868 9.12656 15.6481 9.49651 15.6481C9.59814 15.6481 9.68741 15.6661 9.76269 15.7013C10.1999 15.9062 10.5937 16.01 10.9339 16.01C11.4036 16.01 11.6084 15.8124 11.6337 15.7866C11.6216 15.5639 11.6068 15.3316 11.5918 15.0918C11.4939 13.5378 11.3724 11.6065 11.8641 10.5042C13.3378 7.19988 16.463 6.94338 17.3855 6.94338C17.4092 6.94338 17.7901 6.93908 17.7901 6.93908L17.8447 6.93881C18.7696 6.93881 21.9016 7.19611 23.376 10.5021C23.8678 11.6052 23.7463 13.5378 23.6481 15.0907L23.6441 15.1582C23.6304 15.3747 23.6172 15.5849 23.6062 15.786C23.6298 15.81 23.8183 15.9917 24.2442 16.0078H24.2447C24.5684 15.9955 24.9403 15.8922 25.3484 15.7011C25.4683 15.6454 25.6012 15.6336 25.6915 15.6336C25.8297 15.6336 25.9698 15.6602 26.0859 15.7089L26.0929 15.7115C26.4231 15.8288 26.6395 16.06 26.6441 16.302C26.6484 16.5294 26.4747 16.872 25.6219 17.2088C25.5334 17.2435 25.4205 17.2793 25.3008 17.3175C24.8134 17.4721 24.0778 17.7054 23.8525 18.237C23.7291 18.5271 23.7686 18.8806 23.9697 19.2888C23.9716 19.2925 23.9735 19.2963 23.9751 19.3006C24.0364 19.4431 25.5092 22.802 28.7979 23.344C28.9192 23.3639 29.006 23.4723 28.9993 23.5952C28.9966 23.6414 28.9853 23.6876 28.9657 23.7328C28.8302 24.0501 28.2185 24.4999 26.0792 24.8306C25.9047 24.8572 25.8369 25.0849 25.7326 25.5627C25.6944 25.7364 25.6563 25.9071 25.6033 26.0867C25.5579 26.2424 25.4608 26.3152 25.2973 26.3152H25.2707C25.1575 26.3152 24.9962 26.2951 24.7921 26.2548C24.43 26.184 24.0237 26.1187 23.5072 26.1187C23.2056 26.1187 22.8934 26.1451 22.5797 26.1969C21.9379 26.304 21.3929 26.6887 20.8162 27.0966C19.9779 27.6897 19.1124 28.3013 17.7638 28.3013Z" fill="white"/>
<path d="M17.8452 7.18001C18.7206 7.18028 21.7357 7.415 23.1566 10.6005C23.6242 11.6491 23.5045 13.5494 23.4083 15.076C23.393 15.318 23.3782 15.5524 23.3663 15.7769L23.361 15.8732L23.4255 15.945C23.4513 15.974 23.6946 16.2281 24.2353 16.249L24.2444 16.2493L24.2533 16.249C24.6109 16.2356 25.0137 16.1246 25.4514 15.9194C25.5156 15.8893 25.6014 15.8748 25.692 15.8748C25.7955 15.8748 25.9052 15.8941 25.9958 15.9323L26.0095 15.9377C26.2389 16.0181 26.401 16.1697 26.404 16.3068C26.405 16.3848 26.347 16.6636 25.5339 16.9849C25.4543 17.0164 25.3497 17.0494 25.2285 17.0879C24.6996 17.2559 23.9003 17.5095 23.6312 18.1429C23.4795 18.5008 23.5207 18.9221 23.754 19.3955C23.8503 19.6198 25.3602 23.0222 28.7592 23.5823C28.7581 23.5979 28.7544 23.6159 28.7452 23.6366C28.6874 23.7724 28.3212 24.2407 26.0431 24.5924C25.6864 24.6475 25.599 25.0468 25.4976 25.5114C25.4613 25.6775 25.4239 25.8453 25.3726 26.019C25.3573 26.0714 25.3543 26.0746 25.2979 26.0746C25.2901 26.0746 25.2815 26.0746 25.2712 26.0746C25.1701 26.0746 25.0166 26.0537 24.8386 26.0187C24.5157 25.9555 24.0729 25.8781 23.5078 25.8781C23.1921 25.8781 22.8668 25.9055 22.5409 25.9596C21.8438 26.0757 21.2765 26.4769 20.6758 26.9011C19.8695 27.4714 19.036 28.0605 17.7643 28.0605C17.7089 28.0605 17.6546 28.0589 17.6003 28.0562L17.586 28.0554L17.5715 28.0567C17.5403 28.0594 17.5089 28.0605 17.4766 28.0605C16.2052 28.0605 15.3712 27.4714 14.5651 26.9014C13.9647 26.4769 13.3972 26.0757 12.7003 25.9596C12.3741 25.9055 12.0491 25.8781 11.7334 25.8781C11.1683 25.8781 10.7255 25.9644 10.4023 26.0276C10.2246 26.0625 10.0708 26.0921 9.96996 26.0921C9.88742 26.0921 9.8858 26.0875 9.86833 26.0279C9.81724 25.8542 9.77987 25.6821 9.74358 25.5162C9.64221 25.0513 9.5543 24.6497 9.19805 24.5946C6.91971 24.2429 6.55378 23.7732 6.49598 23.6377C6.48684 23.6167 6.48307 23.5984 6.48226 23.5826C9.88096 23.0225 11.3909 19.6206 11.4869 19.3958C11.7205 18.9218 11.7619 18.5008 11.6103 18.1434C11.3414 17.5095 10.5418 17.2559 10.0127 17.0876C9.89145 17.0494 9.78686 17.0164 9.70728 16.9846C9.02033 16.7134 8.80928 16.4402 8.841 16.2746C8.8773 16.0834 9.20827 15.8893 9.4973 15.8893C9.56236 15.8893 9.61909 15.8998 9.66103 15.9194C10.1305 16.1391 10.559 16.2509 10.9344 16.2509C11.5251 16.2509 11.7883 15.9759 11.8162 15.9447L11.8802 15.8732L11.8749 15.7772C11.863 15.5532 11.8482 15.3188 11.8329 15.0768C11.7367 13.5502 11.6173 11.6515 12.0848 10.6024C13.5001 7.42871 16.5004 7.18405 17.3863 7.18405C17.4081 7.18405 17.7931 7.18028 17.7931 7.18028C17.8095 7.18028 17.8267 7.18001 17.8452 7.18001ZM17.8452 6.69821H17.8442C17.8243 6.69821 17.8054 6.69821 17.7874 6.69848C17.7874 6.69848 17.4151 6.70224 17.3855 6.70224C16.4267 6.70224 13.1775 6.96923 11.6444 10.4064C11.129 11.5625 11.2524 13.5263 11.3516 15.1042C11.3632 15.2905 11.3758 15.4836 11.3863 15.6702C11.307 15.7143 11.1621 15.7688 10.9341 15.7688C10.6297 15.7688 10.2703 15.6729 9.86537 15.483C9.75783 15.4328 9.63388 15.4075 9.49703 15.4075C9.02275 15.4075 8.45572 15.7194 8.36726 16.1845C8.30354 16.5192 8.45357 17.0078 9.52983 17.4328C9.62716 17.4713 9.74384 17.5084 9.86725 17.5474C10.312 17.6885 10.9841 17.9017 11.1664 18.3314C11.2608 18.554 11.2231 18.8406 11.0546 19.1826C11.0511 19.1904 11.0473 19.1982 11.0438 19.206C10.9846 19.3437 9.56209 22.5867 6.40376 23.1067C6.1607 23.1467 5.98729 23.3634 6.00073 23.6092C6.00476 23.6823 6.02224 23.7552 6.05208 23.8256C6.28895 24.3797 7.28912 24.786 9.10987 25.0686C9.17063 25.1508 9.23381 25.4415 9.2728 25.6187C9.31071 25.7934 9.34996 25.9735 9.40588 26.1639C9.46073 26.3508 9.60323 26.5742 9.96969 26.5742C10.1178 26.5742 10.2926 26.54 10.4948 26.5003C10.7981 26.4411 11.2135 26.3599 11.7334 26.3599C12.0217 26.3599 12.3206 26.3849 12.6215 26.4349C13.209 26.5328 13.7082 26.8855 14.2863 27.2942C15.1141 27.8795 16.0516 28.5423 17.4766 28.5423C17.5156 28.5423 17.5551 28.5409 17.5938 28.538C17.6404 28.5401 17.7003 28.5423 17.764 28.5423C19.1895 28.5423 20.1268 27.8795 20.9541 27.2945C21.5335 26.8853 22.0322 26.5325 22.6197 26.4349C22.9203 26.3849 23.2193 26.3599 23.5078 26.3599C24.0038 26.3599 24.3961 26.4231 24.7464 26.4914C24.9658 26.5344 25.1422 26.5562 25.2712 26.5562L25.2847 26.5564H25.2979C25.5683 26.5564 25.7595 26.4134 25.835 26.1537C25.8902 25.9676 25.9294 25.7921 25.9681 25.6143C26.0068 25.4377 26.0698 25.1481 26.1305 25.0664C27.9515 24.7836 28.9514 24.3781 29.188 23.8264C29.2184 23.7557 29.2359 23.6823 29.2402 23.6086C29.2539 23.3629 29.0802 23.1465 28.8374 23.1064C25.6775 22.5856 24.256 19.3434 24.1969 19.2057C24.1936 19.1979 24.1901 19.1901 24.1861 19.1823C24.0175 18.8403 23.9802 18.554 24.0745 18.3314C24.2568 17.9017 24.9287 17.6883 25.3734 17.5474C25.4976 17.5079 25.6146 17.4708 25.7108 17.4328C26.4986 17.1218 26.8938 16.7394 26.8855 16.2972C26.8788 15.9495 26.608 15.6395 26.1778 15.486L26.1765 15.4855C26.0318 15.4255 25.86 15.3927 25.6917 15.3927C25.5769 15.3927 25.4062 15.4083 25.247 15.4828C24.8722 15.6583 24.5354 15.7538 24.2453 15.767C24.0527 15.7578 23.9266 15.7094 23.8549 15.6699C23.8637 15.5097 23.8742 15.3449 23.885 15.1725L23.889 15.1056C23.9888 13.5265 24.1124 11.5611 23.5965 10.404C22.0629 6.96573 18.8067 6.69821 17.8452 6.69821Z" fill="#030303"/>
</g>
<defs>
<linearGradient id="paint0_linear" x1="11.7005" y1="4.95474" x2="20.6138" y2="24.0251" gradientUnits="userSpaceOnUse">
<stop stop-color="#FFFC00"/>
<stop offset="1" stop-color="#FFE600"/>
</linearGradient>
<linearGradient id="paint1_linear" x1="25.0734" y1="21.6183" x2="-26.1263" y2="-5.84713" gradientUnits="userSpaceOnUse">
<stop stop-color="#FFE600" stop-opacity="0"/>
<stop offset="1" stop-color="#FFCE00"/>
</linearGradient>
<linearGradient id="paint2_linear" x1="17.6205" y1="30.1047" x2="17.6205" y2="34.7223" gradientUnits="userSpaceOnUse">
<stop stop-color="#FFE600" stop-opacity="0"/>
<stop offset="1" stop-color="#FFCE00"/>
</linearGradient>
<linearGradient id="paint3_linear" x1="26.4712" y1="33.0748" x2="19.6307" y2="20.8449" gradientUnits="userSpaceOnUse">
<stop stop-color="#FFE600" stop-opacity="0"/>
<stop offset="1" stop-color="#FFCE00"/>
</linearGradient>
<clipPath id="clip0">
<rect width="35.2404" height="35.2404" fill="white"/>
</clipPath>
</defs>
</svg>
