<svg width="36" height="36" viewBox="0 0 36 36" fill="none" xmlns="http://www.w3.org/2000/svg">
<g clip-path="url(#clip0)">
<path d="M17.6202 35.2404C27.3516 35.2404 35.2404 27.3516 35.2404 17.6202C35.2404 7.88884 27.3516 0 17.6202 0C7.88884 0 0 7.88884 0 17.6202C0 27.3516 7.88884 35.2404 17.6202 35.2404Z" fill="#039BE5"/>
<path d="M8.06239 17.2385L25.0512 10.6881C25.8397 10.4033 26.5284 10.8805 26.2729 12.0728L26.2744 12.0713L23.3817 25.6991C23.1673 26.6653 22.5932 26.9002 21.79 26.445L17.385 23.1985L15.2603 25.2454C15.0253 25.4803 14.8271 25.6785 14.3719 25.6785L14.6847 21.1957L22.8487 13.8201C23.204 13.5074 22.7694 13.3312 22.301 13.6425L12.212 19.9945L7.8627 18.6378C6.91855 18.3382 6.89799 17.6936 8.06239 17.2385Z" fill="white"/>
</g>
<defs>
<clipPath id="clip0">
<rect width="35.2404" height="35.2404" fill="white"/>
</clipPath>
</defs>
</svg>
