<svg width="36" height="36" viewBox="0 0 36 36" fill="none" xmlns="http://www.w3.org/2000/svg">
<g clip-path="url(#clip0)">
<path d="M12.5333 18.9594C9.73883 18.9594 7.48123 21.217 7.52253 23.9839C7.55006 25.7597 8.52743 27.3014 9.96596 28.1618C9.47727 27.4116 9.18819 26.5237 9.17443 25.567C9.13313 22.8 11.3907 20.5424 14.1852 20.5424C14.7358 20.5424 15.2658 20.6319 15.7614 20.7902V15.2495C15.2451 15.1738 14.7152 15.1325 14.1852 15.1325C14.1576 15.1325 14.137 15.1325 14.1095 15.1325V19.2072C13.6139 19.0488 13.0839 18.9594 12.5333 18.9594Z" fill="#F00044"/>
<path d="M24.6131 2.34409H24.5718H23.1401C23.5531 4.41584 24.7163 6.21916 26.3407 7.44431C25.2738 6.03332 24.6268 4.2713 24.6131 2.34409Z" fill="#F00044"/>
<path d="M33.0377 10.7756C32.494 10.7756 31.9709 10.7206 31.4546 10.6242V14.5956C29.5825 14.5956 27.7654 14.2308 26.0585 13.5013C24.9572 13.0332 23.9316 12.4344 22.9887 11.7117L23.0162 23.9564C23.0024 26.7095 21.9149 29.2906 19.9464 31.2385C18.3427 32.8216 16.3123 33.8333 14.1097 34.1568C13.5935 34.2325 13.0635 34.2738 12.5336 34.2738C10.1796 34.2738 7.93578 33.5098 6.11182 32.0988C6.3183 32.3466 6.53856 32.5875 6.77946 32.8216C8.76173 34.7763 11.391 35.8569 14.1923 35.8569C14.7223 35.8569 15.2523 35.8156 15.7685 35.7399C17.971 35.4164 20.0015 34.4046 21.6052 32.8216C23.5737 30.8737 24.6612 28.2926 24.675 25.5394L24.5717 13.2948C25.5078 14.0175 26.5334 14.6232 27.6415 15.0843C29.3554 15.807 31.1724 16.1787 33.0377 16.1787" fill="#F00044"/>
<path d="M6.7592 18.1816C8.72083 16.2338 11.3294 15.1532 14.1101 15.1325V13.6664C13.5939 13.5907 13.0639 13.5494 12.534 13.5494C9.72573 13.5494 7.08958 14.6301 5.10731 16.5986C3.15945 18.5327 2.04442 21.1757 2.0513 23.922C2.0513 26.6889 3.14568 29.2837 5.12107 31.2454C5.43769 31.5551 5.76118 31.8442 6.10533 32.1057C4.54979 30.2542 3.7032 27.9416 3.69631 25.505C3.7032 22.7588 4.81134 20.1157 6.7592 18.1816Z" fill="#08FFF9"/>
<path d="M31.4548 10.6243V9.15132H31.441C29.5276 9.15132 27.7655 8.5181 26.3477 7.44437C27.5797 9.06873 29.383 10.2251 31.4548 10.6243Z" fill="#08FFF9"/>
<path d="M13.9038 30.4401C14.5577 30.4745 15.184 30.385 15.7622 30.1992C17.7582 29.5453 19.1968 27.6869 19.1968 25.4981L19.2036 17.3075V2.34408H23.1407C23.0374 1.82787 22.9823 1.30477 22.9755 0.761017H17.5517V15.7176L17.5449 23.9082C17.5449 26.097 16.1063 27.9553 14.1103 28.6092C13.5321 28.8019 12.9058 28.8914 12.2519 28.8501C11.4191 28.8019 10.6413 28.5542 9.9668 28.1549C10.8134 29.4627 12.2588 30.3506 13.9038 30.4401Z" fill="#08FFF9"/>
<path d="M14.1101 34.1568C16.3126 33.8333 18.3431 32.8216 19.9468 31.2385C21.9153 29.2906 23.0028 26.7095 23.0166 23.9564L22.989 11.7117C23.9251 12.4344 24.9507 13.0401 26.0588 13.5013C27.7727 14.224 29.5897 14.5956 31.455 14.5956V10.6242C29.3832 10.225 27.5799 9.06868 26.3479 7.44431C24.7235 6.21916 23.5534 4.41584 23.1473 2.34409H19.2034V17.3006L19.1966 25.4913C19.1966 27.68 17.758 29.5384 15.762 30.1923C15.1838 30.385 14.5575 30.4745 13.9036 30.4332C12.2517 30.3437 10.8132 29.4558 9.96659 28.1549C8.52807 27.3015 7.5507 25.7528 7.52317 23.977C7.48187 21.2101 9.73946 18.9525 12.5339 18.9525C13.0845 18.9525 13.6145 19.042 14.1101 19.2003V15.1256C11.3294 15.1463 8.72079 16.2269 6.75916 18.1747C4.8113 20.1088 3.69627 22.7519 3.70316 25.4913C3.70316 27.9278 4.54975 30.2405 6.11217 32.092C7.94302 33.503 10.18 34.267 12.5339 34.267C13.0639 34.2738 13.5939 34.2325 14.1101 34.1568Z" fill="black"/>
</g>
<defs>
<clipPath id="clip0">
<rect width="35.2404" height="35.2404" fill="white" transform="translate(0 0.692139)"/>
</clipPath>
</defs>
</svg>
