<svg width="35" height="35" viewBox="0 0 35 35" fill="none" xmlns="http://www.w3.org/2000/svg">
<g clip-path="url(#clip0)">
<path d="M17.5008 34.9997C27.1657 34.9997 35.0007 27.1647 35.0007 17.4998C35.0007 7.83495 27.1657 0 17.5008 0C7.83592 0 0.000976562 7.83495 0.000976562 17.4998C0.000976562 27.1647 7.83592 34.9997 17.5008 34.9997Z" fill="#395976"/>
<path d="M18.1487 11.8641V7.16428H15.1149C15.0466 7.33585 15.0129 7.54517 15.0129 7.75418C14.9811 7.85618 14.9437 7.93012 14.9437 8.03181C14.6327 9.77468 13.7274 10.9904 12.1941 11.6545C11.739 11.8644 11.3213 11.8963 10.8708 11.8644V15.6534H13.1001C13.1362 20.9853 13.1362 23.7339 13.1362 23.8736V24.1896C13.4161 26.5159 14.6324 27.91 16.7914 28.4341C17.6602 28.6749 18.5988 28.7822 19.5409 28.7822C20.7575 28.7448 21.9417 28.5361 23.1262 28.1561V23.6971C22.4343 23.9061 21.8032 24.082 21.2464 24.2542C20.1682 24.5693 19.263 24.3606 18.5283 23.6643C18.4591 23.5579 18.3564 23.4179 18.3202 23.2784C18.2176 22.7219 18.1524 22.1311 18.1524 21.5749V15.6531H22.9867V11.8641H18.1487Z" fill="#F1F2F2"/>
</g>
<defs>
<clipPath id="clip0">
<rect width="35" height="35" fill="white"/>
</clipPath>
</defs>
</svg>
