<svg width="36" height="36" viewBox="0 0 36 36" fill="none" xmlns="http://www.w3.org/2000/svg">
<g clip-path="url(#clip0)">
<path d="M35.2404 6.69346C33.9299 7.26832 32.5335 7.64936 31.0777 7.83437C32.5754 6.94014 33.7185 5.53493 34.2559 3.84119C32.8595 4.67374 31.3177 5.26182 29.6746 5.59C28.3487 4.17818 26.459 3.30377 24.3974 3.30377C20.3976 3.30377 17.1775 6.5503 17.1775 10.5303C17.1775 11.1029 17.226 11.6536 17.3449 12.1778C11.3386 11.8848 6.02391 9.00612 2.45361 4.62088C1.8303 5.70232 1.46468 6.94014 1.46468 8.27267C1.46468 10.7747 2.75316 12.9927 4.67376 14.2768C3.51303 14.2547 2.37432 13.9178 1.40962 13.3869C1.40962 13.409 1.40962 13.4376 1.40962 13.4662C1.40962 16.9771 3.91389 19.8932 7.19786 20.565C6.60978 20.7258 5.96885 20.8029 5.30369 20.8029C4.84115 20.8029 4.37422 20.7764 3.93592 20.6795C4.87199 23.5406 7.52824 25.644 10.6867 25.7123C8.22864 27.6351 5.10766 28.7936 1.72898 28.7936C1.1365 28.7936 0.568252 28.7672 0 28.6945C3.20027 30.7583 6.99302 31.9366 11.0831 31.9366C24.3776 31.9366 31.6459 20.924 31.6459 11.3782C31.6459 11.0589 31.6349 10.7505 31.6195 10.4444C33.0533 9.4268 34.2581 8.15594 35.2404 6.69346Z" fill="#03A9F4"/>
</g>
<defs>
<clipPath id="clip0">
<rect width="35.2404" height="35.2404" fill="white"/>
</clipPath>
</defs>
</svg>
