<svg width="46" height="47" viewBox="0 0 46 47" fill="none" xmlns="http://www.w3.org/2000/svg">
<g filter="url(#filter0_d)">
<path d="M17.2547 12.1468L21.125 8.27659V28.7499C21.125 29.2472 21.3225 29.7241 21.6741 30.0758C22.0258 30.4274 22.5027 30.6249 22.9999 30.6249C23.4972 30.6249 23.9741 30.4274 24.3258 30.0758C24.6774 29.7241 24.8749 29.2472 24.8749 28.7499V8.27659L28.7452 12.1468C28.9191 12.3217 29.1259 12.4606 29.3535 12.5554C29.5812 12.6503 29.8254 12.6993 30.0721 12.6996C30.3187 12.6999 30.563 12.6516 30.791 12.5574C31.0189 12.4631 31.226 12.3248 31.4004 12.1504C31.5748 11.976 31.7131 11.7689 31.8074 11.541C31.9016 11.313 31.9499 11.0687 31.9496 10.8221C31.9493 10.5754 31.9003 10.3312 31.8054 10.1035C31.7106 9.87585 31.5717 9.66912 31.3968 9.49518L24.3258 2.42409C24.1517 2.24997 23.945 2.11185 23.7175 2.01761C23.49 1.92338 23.2462 1.87488 22.9999 1.87488C22.7537 1.87488 22.5099 1.92338 22.2824 2.01761C22.0549 2.11185 21.8482 2.24997 21.6741 2.42409L14.6031 9.49518C14.4282 9.66912 14.2893 9.87585 14.1945 10.1035C14.0996 10.3312 14.0506 10.5754 14.0503 10.8221C14.05 11.0687 14.0983 11.313 14.1925 11.541C14.2868 11.7689 14.4251 11.976 14.5995 12.1504C14.7739 12.3248 14.981 12.4631 15.2089 12.5574C15.4369 12.6516 15.6812 12.6999 15.9278 12.6996C16.1745 12.6993 16.4187 12.6503 16.6464 12.5554C16.874 12.4606 17.0808 12.3217 17.2547 12.1468Z" fill="white"/>
<path d="M39.25 18.1249C38.7527 18.1249 38.2758 18.3224 37.9242 18.6741C37.5725 19.0257 37.375 19.5026 37.375 19.9999V34.3749H8.625V19.9999C8.625 19.5026 8.42746 19.0257 8.07583 18.6741C7.72419 18.3224 7.24728 18.1249 6.75 18.1249C6.25272 18.1249 5.77581 18.3224 5.42417 18.6741C5.07254 19.0257 4.875 19.5026 4.875 19.9999V34.9999C4.875 35.8287 5.20424 36.6235 5.79029 37.2096C6.37634 37.7956 7.1712 38.1249 8 38.1249H38C38.8288 38.1249 39.6237 37.7956 40.2097 37.2096C40.7958 36.6235 41.125 35.8287 41.125 34.9999V19.9999C41.125 19.5026 40.9275 19.0257 40.5758 18.6741C40.2242 18.3224 39.7473 18.1249 39.25 18.1249Z" fill="white"/>
</g>
<defs>
<filter id="filter0_d" x="-1" y="0" width="48" height="48" filterUnits="userSpaceOnUse" color-interpolation-filters="sRGB">
<feFlood flood-opacity="0" result="BackgroundImageFix"/>
<feColorMatrix in="SourceAlpha" type="matrix" values="0 0 0 0 0 0 0 0 0 0 0 0 0 0 0 0 0 0 127 0"/>
<feOffset dy="4"/>
<feGaussianBlur stdDeviation="2"/>
<feColorMatrix type="matrix" values="0 0 0 0 0 0 0 0 0 0 0 0 0 0 0 0 0 0 0.25 0"/>
<feBlend mode="normal" in2="BackgroundImageFix" result="effect1_dropShadow"/>
<feBlend mode="normal" in="SourceGraphic" in2="effect1_dropShadow" result="shape"/>
</filter>
</defs>
</svg>
