<svg width="36" height="36" viewBox="0 0 36 36" fill="none" xmlns="http://www.w3.org/2000/svg">
<g clip-path="url(#clip0)">
<path d="M35.2404 0.692139H0V35.9326H35.2404V0.692139Z" fill="#7D3DAF"/>
<path d="M28.7654 12.0516L28.7585 12.0237C28.1955 9.74798 25.6577 7.30598 23.327 6.79794L23.3007 6.79253C19.531 6.07339 15.7087 6.07339 11.9398 6.79253L11.9127 6.79794C9.58287 7.30598 7.04499 9.74798 6.48127 12.0237L6.47508 12.0516C5.77914 15.2297 5.77914 18.4527 6.47508 21.6308L6.48127 21.6587C7.02094 23.8373 9.36983 26.1671 11.6135 26.8078V29.3482C11.6135 30.2676 12.734 30.7192 13.3711 30.0557L15.945 27.3803C16.5032 27.4115 17.0617 27.4289 17.6203 27.4289C19.5179 27.4289 21.4163 27.2495 23.3007 26.8899L23.327 26.8845C25.6577 26.3765 28.1955 23.9345 28.7585 21.6588L28.7654 21.6309C29.4614 18.4527 29.4614 15.2297 28.7654 12.0516ZM26.7286 21.17C26.3528 22.6547 24.4258 24.5005 22.8948 24.8415C20.8904 25.2226 18.8701 25.3855 16.8519 25.3296C16.8117 25.3286 16.7731 25.3441 16.7452 25.3729C16.4587 25.6669 14.8659 27.302 14.8659 27.302L12.867 29.3535C12.7208 29.5058 12.4641 29.4022 12.4641 29.1919V24.9836C12.4641 24.9141 12.4144 24.855 12.3462 24.8416C12.3458 24.8415 12.3454 24.8415 12.345 24.8414C10.8139 24.5004 8.8877 22.6546 8.51111 21.1699C7.88476 18.2972 7.88476 15.385 8.51111 12.5123C8.8877 11.0277 10.8139 9.18186 12.345 8.84085C15.8456 8.17506 19.3949 8.17506 22.8948 8.84085C24.4266 9.18186 26.3528 11.0277 26.7286 12.5123C27.3557 15.3851 27.3557 18.2973 26.7286 21.17Z" fill="white"/>
<path d="M20.9509 23.1126C20.7155 23.0411 20.4912 22.9931 20.2828 22.9067C18.1242 22.0111 16.1375 20.8556 14.5638 19.0845C13.6689 18.0773 12.9684 16.9402 12.3763 15.7368C12.0956 15.1661 11.8589 14.5731 11.6178 13.984C11.3978 13.4467 11.7218 12.8916 12.0628 12.4868C12.3829 12.1069 12.7948 11.8162 13.2408 11.6019C13.5889 11.4346 13.9323 11.5311 14.1866 11.8261C14.7362 12.4641 15.2411 13.1347 15.6499 13.8741C15.9013 14.329 15.8323 14.885 15.3767 15.1945C15.266 15.2698 15.1651 15.3581 15.0619 15.443C14.9714 15.5175 14.8863 15.5927 14.8243 15.6936C14.7109 15.8781 14.7055 16.0957 14.7785 16.2963C15.3404 17.8403 16.2874 19.041 17.8415 19.6877C18.0902 19.7912 18.34 19.9116 18.6265 19.8782C19.1063 19.8222 19.2617 19.2959 19.5979 19.0209C19.9265 18.7522 20.3465 18.7486 20.7005 18.9726C21.0546 19.1967 21.3978 19.4373 21.739 19.6804C22.0739 19.9191 22.4073 20.1525 22.7163 20.4245C23.0133 20.6861 23.1156 21.0293 22.9483 21.3843C22.6421 22.0345 22.1965 22.5754 21.5538 22.9207C21.3723 23.018 21.1556 23.0496 20.9509 23.1126C20.7155 23.0411 21.1556 23.0496 20.9509 23.1126Z" fill="white"/>
<path d="M17.6263 10.8584C20.4499 10.9375 22.769 12.8114 23.266 15.6029C23.3507 16.0786 23.3808 16.5649 23.4185 17.0477C23.4343 17.2507 23.3193 17.4436 23.1002 17.4463C22.8739 17.449 22.772 17.2596 22.7573 17.0566C22.7282 16.6548 22.7081 16.2513 22.6527 15.8528C22.3604 13.7494 20.6832 12.0092 18.5895 11.6358C18.2745 11.5796 17.952 11.5648 17.6329 11.5313C17.4312 11.5102 17.1669 11.4979 17.1222 11.2472C17.0847 11.0369 17.2622 10.8695 17.4624 10.8588C17.5168 10.8557 17.5716 10.8582 17.6263 10.8584C20.4499 10.9375 17.5716 10.8582 17.6263 10.8584Z" fill="white"/>
<path d="M21.9172 16.421C21.9126 16.4562 21.9101 16.5391 21.8895 16.6172C21.8145 16.9007 21.3847 16.9362 21.2858 16.6501C21.2565 16.5652 21.2521 16.4686 21.2519 16.3772C21.2509 15.7792 21.1209 15.1817 20.8193 14.6614C20.5093 14.1266 20.0357 13.677 19.4802 13.405C19.1443 13.2405 18.781 13.1383 18.4128 13.0773C18.2519 13.0507 18.0893 13.0346 17.9276 13.0121C17.7317 12.9849 17.627 12.86 17.6363 12.6669C17.645 12.4859 17.7772 12.3558 17.9744 12.3669C18.6224 12.4037 19.2483 12.5438 19.8244 12.8488C20.9959 13.4692 21.6651 14.4485 21.8604 15.7561C21.8692 15.8154 21.8834 15.874 21.8879 15.9335C21.899 16.0804 21.9059 16.2274 21.9172 16.421C21.9126 16.4562 21.9059 16.2274 21.9172 16.421Z" fill="white"/>
<path d="M20.1608 16.3526C19.9245 16.3569 19.7981 16.2261 19.7738 16.0095C19.7568 15.8585 19.7434 15.7055 19.7074 15.5586C19.6364 15.2692 19.4826 15.001 19.2392 14.8237C19.1243 14.74 18.994 14.679 18.8576 14.6396C18.6843 14.5896 18.5044 14.6034 18.3315 14.561C18.1437 14.515 18.0399 14.3629 18.0694 14.1868C18.0963 14.0265 18.2522 13.9014 18.4274 13.9141C19.5221 13.9931 20.3045 14.559 20.4162 15.8478C20.4241 15.9387 20.4334 16.0348 20.4132 16.1218C20.3786 16.2707 20.2684 16.3454 20.1608 16.3526C19.9245 16.3569 20.2684 16.3454 20.1608 16.3526Z" fill="white"/>
</g>
<defs>
<clipPath id="clip0">
<rect width="35.2404" height="35.2404" fill="white" transform="translate(0 0.692139)"/>
</clipPath>
</defs>
</svg>
