<svg width="36" height="36" viewBox="0 0 36 36" fill="none" xmlns="http://www.w3.org/2000/svg">
<g clip-path="url(#clip0)">
<path d="M29.2422 19.1297C28.6725 18.4102 28.8355 18.0901 29.2422 17.4469C29.2496 17.4396 33.9527 10.9407 34.4373 8.73667L34.4402 8.7352C34.681 7.93201 34.4402 7.34174 33.2758 7.34174H29.4228C28.442 7.34174 27.9897 7.84832 27.7474 8.4151C27.7474 8.4151 25.7857 13.1109 23.0105 16.1548C22.1148 17.0343 21.7008 17.3162 21.2118 17.3162C20.971 17.3162 20.5966 17.0343 20.5966 16.2311V8.7352C20.5966 7.77196 20.322 7.34174 19.51 7.34174H13.4516C12.8363 7.34174 12.4707 7.79105 12.4707 8.20953C12.4707 9.12285 13.8583 9.33282 14.0022 11.9024V17.4778C14.0022 18.6994 13.7805 18.9241 13.2886 18.9241C11.9788 18.9241 8.79983 14.2092 6.91594 8.81302C6.53563 7.76609 6.16414 7.3432 5.17594 7.3432H1.32152C0.221721 7.3432 0 7.84979 0 8.41657C0 9.41798 1.30977 14.3972 6.09072 20.9754C9.27705 25.4656 13.7643 27.8987 17.8463 27.8987C20.3 27.8987 20.5995 27.3583 20.5995 26.4288C20.5995 22.1383 20.3778 21.7331 21.6068 21.7331C22.1765 21.7331 23.1574 22.015 25.448 24.1808C28.0661 26.7489 28.4963 27.8987 29.9617 27.8987H33.8147C34.913 27.8987 35.4695 27.3583 35.1494 26.2923C34.4167 24.0501 29.4654 19.438 29.2422 19.1297Z" fill="#4B729F"/>
</g>
<defs>
<clipPath id="clip0">
<rect width="35.2404" height="35.2404" fill="white"/>
</clipPath>
</defs>
</svg>
