<svg width="35" height="35" viewBox="0 0 35 35" fill="none" xmlns="http://www.w3.org/2000/svg">
<path d="M24.9783 10.7071C23.3494 6.04625 18.4392 2.91669 12.7604 2.91669C5.72394 2.91669 0 7.8225 0 13.8542C0.0591992 17.1959 1.73729 20.3009 4.50044 22.1812L2.994 25.1942C2.81046 25.5527 2.95224 25.992 3.31071 26.1756C3.53356 26.2896 3.79941 26.2814 4.01481 26.1537L7.87356 23.9473C8.92042 24.3171 10.0062 24.5656 11.1096 24.6881C11.5097 24.7342 11.8714 24.4473 11.9175 24.0473C11.9271 23.9637 11.9222 23.879 11.903 23.7971C11.7509 23.1676 11.6717 22.5227 11.6668 21.8751C11.6668 16.2474 17.2274 11.6668 24.0626 11.6668L24.2769 11.6769C24.5139 11.6746 24.7366 11.5633 24.8807 11.3751C25.0205 11.1817 25.057 10.9323 24.9783 10.7071Z" fill="#4CAF50"/>
<path d="M8.02099 7.29169C6.81288 7.29169 5.8335 8.27107 5.8335 9.47919C5.8335 10.6873 6.81288 11.6667 8.02099 11.6667C9.22911 11.6667 10.2085 10.6873 10.2085 9.47919C10.2085 8.27107 9.22911 7.29169 8.02099 7.29169Z" fill="#FAFAFA"/>
<path d="M16.771 7.29169C15.5629 7.29169 14.5835 8.27107 14.5835 9.47919C14.5835 10.6873 15.5629 11.6667 16.771 11.6667C17.9791 11.6667 18.9585 10.6873 18.9585 9.47919C18.9585 8.27107 17.9791 7.29169 16.771 7.29169Z" fill="#FAFAFA"/>
<path d="M35 21.875C35 17.0494 30.0942 13.125 24.0625 13.125C18.0308 13.125 13.125 17.0494 13.125 21.875C13.125 26.7006 18.0308 30.625 24.0625 30.625C25.194 30.6246 26.321 30.4815 27.4167 30.1992L31.0319 32.0061C31.392 32.1863 31.83 32.0406 32.0103 31.6805C32.1037 31.494 32.1127 31.2765 32.0352 31.0829L31.045 28.6038C33.4115 27.1692 34.8978 24.6405 35 21.875Z" fill="#4CAF50"/>
<path d="M20.4168 17.5C19.6114 17.5 18.9585 18.1529 18.9585 18.9583C18.9585 19.7637 19.6114 20.4166 20.4168 20.4166C21.2222 20.4166 21.8751 19.7637 21.8751 18.9583C21.8751 18.1529 21.2222 17.5 20.4168 17.5Z" fill="#FAFAFA"/>
<path d="M27.7083 17.5C26.9029 17.5 26.25 18.1529 26.25 18.9583C26.25 19.7637 26.9029 20.4166 27.7083 20.4166C28.5137 20.4166 29.1666 19.7637 29.1666 18.9583C29.1667 18.1529 28.5137 17.5 27.7083 17.5Z" fill="#FAFAFA"/>
</svg>
