<svg width="36" height="36" viewBox="0 0 36 36" fill="none" xmlns="http://www.w3.org/2000/svg">
<g clip-path="url(#clip0)">
<path d="M17.6246 0.692139H17.6158C7.90047 0.692139 0 8.59481 0 18.3124C0 22.1668 1.24223 25.7393 3.35445 28.64L1.15853 35.1859L7.9313 33.0208C10.7175 34.8666 14.0411 35.9326 17.6246 35.9326C27.34 35.9326 35.2404 28.0277 35.2404 18.3124C35.2404 8.59701 27.34 0.692139 17.6246 0.692139Z" fill="#4CAF50"/>
<path d="M27.8773 25.5741C27.4522 26.7745 25.7651 27.77 24.4194 28.0608C23.4987 28.2568 22.2961 28.4132 18.2479 26.7349C13.0697 24.5896 9.73511 19.3278 9.47521 18.9864C9.22633 18.645 7.38281 16.2002 7.38281 13.6717C7.38281 11.1432 8.66689 9.91195 9.18448 9.38335C9.60957 8.94945 10.3122 8.75122 10.9861 8.75122C11.2042 8.75122 11.4002 8.76223 11.5764 8.77104C12.094 8.79307 12.3539 8.8239 12.6953 9.64104C13.1204 10.6652 14.1556 13.1937 14.2789 13.4536C14.4045 13.7135 14.53 14.0659 14.3538 14.4073C14.1886 14.7597 14.0433 14.9161 13.7834 15.2156C13.5235 15.5152 13.2768 15.7442 13.0169 16.0658C12.779 16.3455 12.5103 16.6451 12.8098 17.1627C13.1094 17.6693 14.1446 19.3586 15.6687 20.7153C17.6356 22.4664 19.2302 23.0258 19.8007 23.2637C20.2258 23.4399 20.7323 23.398 21.0429 23.0676C21.4371 22.6426 21.9239 21.9377 22.4195 21.244C22.7719 20.7462 23.2168 20.6845 23.6837 20.8607C24.1595 21.0259 26.677 22.2703 27.1945 22.528C27.7121 22.7879 28.0535 22.9113 28.1791 23.1293C28.3024 23.3474 28.3024 24.3715 27.8773 25.5741Z" fill="#FAFAFA"/>
</g>
<defs>
<clipPath id="clip0">
<rect width="35.2404" height="35.2404" fill="white" transform="translate(0 0.692139)"/>
</clipPath>
</defs>
</svg>
