<svg width="35" height="35" viewBox="0 0 35 35" fill="none" xmlns="http://www.w3.org/2000/svg">
<rect width="35" height="35" rx="5" fill="#5C6BC0"/>
<g clip-path="url(#clip0)">
<path d="M17.4902 4.00162C17.1854 4.00162 16.8809 4.018 16.578 4.05066C16.3002 4.07902 16.0259 4.12554 15.7553 4.18199C15.703 4.19295 15.6506 4.20451 15.5982 4.2166C14.0038 4.57961 12.5479 5.39481 11.4051 6.56445C11.2989 6.67338 11.1948 6.78553 11.0931 6.90087C8.00617 10.4448 8.37663 15.8201 11.9206 18.9071C15.3134 21.8624 20.4206 21.6658 23.5761 18.4583C23.6826 18.3494 23.7866 18.2372 23.8882 18.1219C25.2505 16.5705 26.0012 14.576 26 12.5114C26 7.81153 22.19 4.00158 17.4902 4.00162ZM11.7832 6.98994C11.8281 6.94342 11.8746 6.89889 11.9203 6.85378C11.973 6.80187 12.0255 6.74968 12.0794 6.69947C12.1268 6.65522 12.1755 6.61267 12.2241 6.56956C12.2788 6.52105 12.3333 6.47255 12.3894 6.42574C12.4388 6.38404 12.4896 6.34405 12.5401 6.30377C12.5968 6.25838 12.6535 6.213 12.712 6.16931C12.7636 6.13045 12.8161 6.09272 12.8688 6.05585C12.9275 6.01387 12.9865 5.97075 13.0464 5.93161C13.1 5.8953 13.1542 5.86012 13.2086 5.82523C13.2693 5.78637 13.3303 5.74808 13.3919 5.71177C13.4473 5.67869 13.5031 5.64614 13.5592 5.61419C13.622 5.57845 13.6851 5.54356 13.7484 5.50952C13.8052 5.47927 13.8619 5.44967 13.9186 5.42073C13.9833 5.38811 14.0486 5.35663 14.1141 5.32571C14.1708 5.29876 14.2298 5.27181 14.2882 5.24628C14.3549 5.21792 14.4224 5.18955 14.4899 5.16118C14.5486 5.13707 14.6071 5.11353 14.6664 5.09084C14.735 5.06474 14.8045 5.04035 14.874 5.01595C14.9333 4.99524 14.9926 4.97454 15.0527 4.95496C15.1233 4.93227 15.1945 4.91128 15.266 4.89057C15.3259 4.87327 15.3852 4.8554 15.4453 4.83923C15.4683 4.83327 15.4913 4.82845 15.5142 4.82249C14.6746 5.63777 14.0515 6.64958 13.7014 7.76632C13.0281 7.58875 12.3763 7.33792 11.7577 7.01831C11.7671 7.00838 11.775 6.99845 11.7832 6.98994ZM11.3753 7.44663C12.0567 7.81582 12.7793 8.10338 13.528 8.30329C13.161 9.57962 12.9683 10.8997 12.9553 12.2277H9.55425C9.61605 10.4765 10.2564 8.79519 11.3753 7.44663ZM11.3753 17.5761C10.2565 16.2275 9.61612 14.5462 9.55425 12.795H12.9553C12.9683 14.123 13.1609 15.4432 13.528 16.7195C12.7793 16.9195 12.0568 17.207 11.3753 17.5761ZM15.4436 20.1847C15.3863 20.1702 15.327 20.1515 15.268 20.1342C15.1962 20.1132 15.1242 20.0922 15.0533 20.0692C14.9934 20.0499 14.9344 20.0292 14.8754 20.0085C14.8056 19.9844 14.7359 19.9597 14.6669 19.9334C14.6079 19.9109 14.5498 19.8874 14.4913 19.8636C14.4236 19.8352 14.3558 19.8068 14.2885 19.7785C14.2307 19.7529 14.1731 19.7267 14.1158 19.6996C14.0497 19.6684 13.9839 19.6366 13.9172 19.6037C13.8605 19.5754 13.8038 19.547 13.747 19.5161C13.6829 19.4818 13.6194 19.4466 13.5558 19.4103C13.4991 19.3788 13.4452 19.3465 13.3905 19.3136C13.3281 19.2761 13.2668 19.2375 13.2055 19.1981C13.1516 19.1638 13.0977 19.1289 13.0447 19.0932C12.9843 19.0523 12.9244 19.0098 12.8651 18.9672C12.8132 18.93 12.7613 18.8929 12.7102 18.8537C12.6515 18.8095 12.5939 18.7638 12.5366 18.7179C12.4864 18.6779 12.4365 18.6382 12.3874 18.597C12.3307 18.5499 12.276 18.5009 12.2209 18.4521C12.1727 18.4092 12.1242 18.367 12.0771 18.3233C12.0229 18.2728 11.9705 18.2203 11.9177 18.1684C11.872 18.1233 11.8255 18.0788 11.7807 18.0325C11.7725 18.0238 11.7645 18.0147 11.7563 18.0062C12.3749 17.6864 13.0266 17.4355 13.6999 17.2579C14.0502 18.3746 14.6732 19.3863 15.5128 20.2017C15.4898 20.1957 15.4666 20.1909 15.4436 20.1847ZM17.2065 20.4315C15.9928 20.259 14.9288 18.9922 14.2593 17.1214C15.2272 16.9047 16.2148 16.7884 17.2065 16.7745V20.4315ZM17.2065 16.2072C16.1545 16.221 15.1069 16.346 14.0812 16.5799C13.725 15.3493 13.5371 14.0761 13.5227 12.795H17.2065V16.2072ZM17.2065 12.2277H13.5227C13.5371 10.9467 13.725 9.67347 14.0812 8.44285C15.1069 8.67676 16.1546 8.80171 17.2065 8.81558V12.2277ZM17.2065 8.24826C16.2148 8.23443 15.2272 8.11816 14.2593 7.90134C14.9288 6.0306 15.9928 4.76378 17.2065 4.59131V8.24826ZM23.6051 7.44663C24.7239 8.79523 25.3643 10.4765 25.4262 12.2277H22.0251C22.0121 10.8997 21.8195 9.57962 21.4524 8.30329C22.2011 8.10327 22.9236 7.81575 23.6051 7.44663ZM19.5345 4.83781C19.5941 4.85256 19.6534 4.87128 19.7124 4.88859C19.7842 4.90958 19.8562 4.93057 19.9271 4.95355C19.987 4.97283 20.046 4.99354 20.105 5.01425C20.1748 5.03836 20.2445 5.06304 20.3135 5.08942C20.3725 5.11183 20.4306 5.13537 20.4891 5.1592C20.5568 5.18756 20.6246 5.21593 20.6919 5.2443C20.7497 5.26983 20.8073 5.2961 20.8646 5.32315C20.9307 5.35436 20.9965 5.38613 21.0632 5.41903C21.1199 5.4474 21.1766 5.47576 21.2334 5.50668C21.2975 5.54101 21.361 5.57618 21.4246 5.61249C21.4813 5.64397 21.5352 5.67631 21.5899 5.70922C21.6523 5.74666 21.7136 5.78524 21.7749 5.82467C21.8288 5.85899 21.8827 5.89388 21.9357 5.92962C21.9961 5.97047 22.0557 6.01273 22.115 6.05528C22.1672 6.09244 22.2191 6.12988 22.2704 6.16875C22.3289 6.21271 22.3862 6.25838 22.4438 6.30433C22.4937 6.34405 22.5439 6.38376 22.593 6.42517C22.6497 6.47226 22.7044 6.52133 22.7595 6.57012C22.8077 6.61296 22.8562 6.65522 22.9033 6.69891C22.9575 6.7494 23.0099 6.80187 23.0627 6.85378C23.1084 6.89889 23.1549 6.94342 23.1997 6.98966C23.2079 6.99845 23.2159 7.00753 23.2241 7.01604C22.6055 7.33579 21.9538 7.58673 21.2805 7.76433C20.9296 6.64749 20.3057 5.63578 19.4653 4.82079C19.4883 4.82675 19.5116 4.83157 19.5345 4.83781ZM17.7739 4.59131C18.9876 4.76378 20.0517 6.0306 20.7211 7.90134C19.7532 8.11806 18.7656 8.23432 17.7739 8.24826V4.59131ZM17.7739 8.81558C18.8259 8.80175 19.8735 8.6768 20.8992 8.44285C21.2554 9.67347 21.4433 10.9467 21.4578 12.2277H17.7739V8.81558ZM17.7739 12.795H21.4578C21.4433 14.0761 21.2554 15.3493 20.8992 16.5799C19.8735 16.346 18.8259 16.2211 17.7739 16.2072V12.795ZM17.7739 20.4315V16.7745C18.7656 16.7883 19.7532 16.9046 20.7211 17.1214C20.0517 18.9922 18.9876 20.259 17.7739 20.4315ZM23.1972 18.0328C23.1523 18.0791 23.1061 18.1236 23.0604 18.1687C23.0077 18.2206 22.9549 18.2731 22.9007 18.3236C22.8536 18.3675 22.8051 18.4087 22.7569 18.4526C22.7019 18.5014 22.6471 18.5502 22.591 18.5973C22.5413 18.6387 22.4908 18.6787 22.4404 18.719C22.3836 18.7644 22.3269 18.8098 22.2685 18.8535C22.2168 18.8923 22.1643 18.93 22.1116 18.9669C22.0529 19.0089 21.9939 19.052 21.934 19.0912C21.8804 19.1275 21.8262 19.1626 21.7718 19.1973C21.7111 19.2364 21.6499 19.2742 21.5882 19.3107C21.5315 19.3439 21.4773 19.3762 21.4214 19.4083C21.3586 19.444 21.2955 19.4789 21.232 19.513C21.1752 19.5432 21.1185 19.5728 21.0618 19.6018C20.9971 19.6344 20.9318 19.6659 20.8663 19.6968C20.8096 19.7237 20.7506 19.7507 20.6922 19.7762C20.6255 19.8046 20.558 19.8329 20.4905 19.8613C20.4318 19.8851 20.3733 19.909 20.3143 19.9314C20.2451 19.9577 20.1756 19.9824 20.1058 20.0065C20.0468 20.0272 19.9878 20.048 19.928 20.0672C19.8571 20.0902 19.7861 20.1112 19.7138 20.1319C19.6545 20.1495 19.595 20.1671 19.5351 20.1833C19.5121 20.1892 19.4892 20.194 19.4662 20.2C20.3058 19.3847 20.9289 18.3729 21.279 17.2562C21.9523 17.4337 22.6041 17.6846 23.2227 18.0042C23.2133 18.0144 23.2054 18.0243 23.1972 18.0328ZM23.6051 17.5761C22.9237 17.207 22.2011 16.9194 21.4524 16.7195C21.8194 15.4432 22.0121 14.123 22.0251 12.795H25.4262C25.3644 14.5462 24.724 16.2276 23.6051 17.5761Z" fill="white"/>
</g>
<path d="M6.64512 30H7.39212L8.64762 27.003L9.90312 30H10.6546L13.0081 25.392H11.7256L10.3126 28.4835L9.03012 25.392H8.26962L6.98262 28.4835L5.56962 25.392H4.28712L6.64512 30ZM15.4957 30H16.2427L17.4982 27.003L18.7537 30H19.5052L21.8587 25.392H20.5762L19.1632 28.4835L17.8807 25.392H17.1202L15.8332 28.4835L14.4202 25.392H13.1377L15.4957 30ZM24.3463 30H25.0933L26.3488 27.003L27.6043 30H28.3558L30.7093 25.392H29.4268L28.0138 28.4835L26.7313 25.392H25.9708L24.6838 28.4835L23.2708 25.392H21.9883L24.3463 30Z" fill="white"/>
<defs>
<clipPath id="clip0">
<rect width="17" height="17" fill="white" transform="translate(9 4)"/>
</clipPath>
</defs>
</svg>
