<svg width="36" height="36" viewBox="0 0 36 36" fill="none" xmlns="http://www.w3.org/2000/svg">
<g clip-path="url(#clip0)">
<path d="M34.5144 9.85289C34.1081 8.34323 32.9179 7.15325 31.4085 6.74673C28.6507 5.99203 17.6199 5.99203 17.6199 5.99203C17.6199 5.99203 6.58927 5.99203 3.83155 6.71796C2.3512 7.12421 1.13191 8.3435 0.725659 9.85289C0 12.6103 0 18.329 0 18.329C0 18.329 0 24.0765 0.725659 26.8052C1.13218 28.3146 2.32216 29.5048 3.83182 29.9113C6.61831 30.666 17.6201 30.666 17.6201 30.666C17.6201 30.666 28.6507 30.666 31.4085 29.9401C32.9181 29.5339 34.1081 28.3436 34.5146 26.8342C35.2403 24.0765 35.2403 18.3581 35.2403 18.3581C35.2403 18.3581 35.2693 12.6103 34.5144 9.85289Z" fill="#FF0000"/>
<path d="M14.1074 23.6122L23.2802 18.3291L14.1074 13.0459V23.6122Z" fill="white"/>
</g>
<defs>
<clipPath id="clip0">
<rect width="35.2404" height="35.2404" fill="white" transform="translate(0 0.692139)"/>
</clipPath>
</defs>
</svg>
