<svg width="27" height="33" viewBox="0 0 27 33" fill="none" xmlns="http://www.w3.org/2000/svg">
<path d="M0 12.7698C0 21.2589 7.1686 33 13.5 33C19.4605 33 27 21.2589 27 12.7698C27 4.28073 20.9559 0 13.5 0C6.04409 0 0 4.28073 0 12.7698ZM17.0076 19.0471C18.6559 17.4578 20.9557 16.8797 23.0782 17.3123C23.5268 19.3588 22.9273 21.5762 21.279 23.1656C19.6306 24.7549 17.3309 25.3329 15.2083 24.9004C14.7597 22.8538 15.3592 20.6364 17.0076 19.0471ZM3.92172 17.3122C6.04425 16.8797 8.34401 17.4577 9.99237 19.047C11.6407 20.6364 12.2402 22.8538 11.7916 24.9003C9.66907 25.3328 7.36932 24.7549 5.72096 23.1655C4.0726 21.5761 3.47315 19.3588 3.92172 17.3122Z" fill="#A8A8A8"/>
</svg>
